Nokyung-Regular.ufo
<glyph name="parenright" format="2">
  <advance width="712"/>
  <unicode hex="0029"/>
  <outline>
    <contour>
      <point x="110" y="1135" type="line"/>
      <point x="260" y="997"/>
      <point x="412" y="765"/>
      <point x="412" y="425" type="curve" smooth="yes"/>
      <point x="412" y="85"/>
      <point x="260" y="-146"/>
      <point x="110" y="-285" type="curve"/>
      <point x="134" y="-312" type="line"/>
      <point x="350" y="-156"/>
      <point x="512" y="55"/>
      <point x="512" y="425" type="curve" smooth="yes"/>
      <point x="512" y="796"/>
      <point x="350" y="1007"/>
      <point x="134" y="1162" type="curve"/>
    </contour>
  </outline>
</glyph>
<glyph name="one" format="2">
  <advance width="1003"/>
  <unicode hex="0031"/>
  <anchor x="502" y="-84" name="L"/>
  <anchor x="502" y="1279" name="U"/>
  <outline>
    <contour>
      <point x="447" y="142" type="line"/>
      <point x="184" y="142" type="line"/>
      <point x="184" y="0" type="line"/>
      <point x="869" y="0" type="line"/>
      <point x="869" y="142" type="line"/>
      <point x="606" y="142" type="line"/>
      <point x="606" y="1237" type="line"/>
      <point x="464" y="1237" type="line"/>
      <point x="176" y="1060" type="line"/>
      <point x="196" y="910" type="line"/>
      <point x="447" y="1053" type="line"/>
    </contour>
  </outline>
</glyph>
<glyph name="seven" format="2">
  <advance width="1003"/>
  <unicode hex="0037"/>
  <anchor x="502" y="-84" name="L"/>
  <anchor x="502" y="1279" name="U"/>
  <outline>
    <contour>
      <point x="385" y="0" type="line"/>
      <point x="492" y="384"/>
      <point x="664" y="748"/>
      <point x="911" y="1087" type="curve"/>
      <point x="911" y="1221" type="line"/>
      <point x="84" y="1221" type="line"/>
      <point x="84" y="1066" type="line"/>
      <point x="147" y="1079"/>
      <point x="244" y="1083"/>
      <point x="401" y="1083" type="curve" smooth="yes"/>
      <point x="727" y="1083" type="line"/>
      <point x="512" y="762"/>
      <point x="367" y="473"/>
      <point x="230" y="0" type="curve"/>
    </contour>
  </outline>
</glyph>
<glyph name="less" format="2">
  <advance width="1003"/>
  <unicode hex="003C"/>
  <outline>
    <contour>
      <point x="903" y="355" type="line"/>
      <point x="242" y="610" type="line"/>
      <point x="903" y="865" type="line"/>
      <point x="903" y="1016" type="line"/>
      <point x="84" y="681" type="line"/>
      <point x="84" y="539" type="line"/>
      <point x="903" y="205" type="line"/>
    </contour>
  </outline>
</glyph>
<glyph name="equal" format="2">
  <advance width="1003"/>
  <unicode hex="003D"/>
  <outline>
    <contour>
      <point x="100" y="401" type="line"/>
      <point x="903" y="401" type="line"/>
      <point x="903" y="527" type="line"/>
      <point x="100" y="527" type="line"/>
    </contour>
    <contour>
      <point x="100" y="694" type="line"/>
      <point x="903" y="694" type="line"/>
      <point x="903" y="819" type="line"/>
      <point x="100" y="819" type="line"/>
    </contour>
  </outline>
</glyph>
<glyph name="question" format="2">
  <advance width="879"/>
  <unicode hex="003F"/>
  <outline>
    <contour>
      <point x="779" y="1034" type="curve" smooth="yes"/>
      <point x="779" y="1228"/>
      <point x="630" y="1340"/>
      <point x="442" y="1340" type="curve" smooth="yes"/>
      <point x="257" y="1340"/>
      <point x="154" y="1232"/>
      <point x="105" y="1151" type="curve" smooth="yes"/>
      <point x="102" y="1147"/>
      <point x="101" y="1142"/>
      <point x="101" y="1138" type="curve" smooth="yes"/>
      <point x="101" y="1125"/>
      <point x="115" y="1113"/>
      <point x="142" y="1098" type="curve" smooth="yes"/>
      <point x="160" y="1088"/>
      <point x="174" y="1082"/>
      <point x="184" y="1082" type="curve" smooth="yes"/>
      <point x="193" y="1082"/>
      <point x="200" y="1087"/>
      <point x="206" y="1098" type="curve" smooth="yes"/>
      <point x="243" y="1167"/>
      <point x="325" y="1240"/>
      <point x="442" y="1240" type="curve" smooth="yes"/>
      <point x="560" y="1240"/>
      <point x="672" y="1163"/>
      <point x="672" y="1017" type="curve" smooth="yes"/>
      <point x="672" y="782"/>
      <point x="382" y="732"/>
      <point x="382" y="710" type="curve" smooth="yes"/>
      <point x="382" y="685"/>
      <point x="382" y="446"/>
      <point x="382" y="418" type="curve" smooth="yes"/>
      <point x="382" y="403"/>
      <point x="393" y="400"/>
      <point x="442" y="400" type="curve" smooth="yes"/>
      <point x="486" y="400"/>
      <point x="502" y="408"/>
      <point x="502" y="419" type="curve" smooth="yes"/>
      <point x="502" y="446"/>
      <point x="502" y="592"/>
      <point x="502" y="664" type="curve" smooth="yes"/>
      <point x="502" y="681"/>
      <point x="779" y="754"/>
    </contour>
    <contour>
      <point x="557" y="110" type="curve" smooth="yes"/>
      <point x="557" y="190"/>
      <point x="507" y="240"/>
      <point x="441" y="240" type="curve" smooth="yes"/>
      <point x="377" y="240"/>
      <point x="327" y="190"/>
      <point x="327" y="110" type="curve" smooth="yes"/>
      <point x="327" y="30"/>
      <point x="377" y="-20"/>
      <point x="441" y="-20" type="curve" smooth="yes"/>
      <point x="507" y="-20"/>
      <point x="557" y="30"/>
    </contour>
  </outline>
</glyph>
<glyph name="B" format="2">
  <advance width="1074"/>
  <unicode hex="0042"/>
  <anchor x="514" y="-84" name="L"/>
  <anchor x="514" y="1279" name="U"/>
  <outline>
    <contour>
      <point x="305" y="715" type="line"/>
      <point x="305" y="1095" type="line"/>
      <point x="340" y="1097"/>
      <point x="428" y="1099"/>
      <point x="493" y="1099" type="curve" smooth="yes"/>
      <point x="661" y="1099"/>
      <point x="727" y="1036"/>
      <point x="727" y="911" type="curve" smooth="yes"/>
      <point x="727" y="795"/>
      <point x="647" y="715"/>
      <point x="468" y="715" type="curve" smooth="yes"/>
    </contour>
    <contour>
      <point x="506" y="-8" type="curve" smooth="yes"/>
      <point x="826" y="-8"/>
      <point x="953" y="148"/>
      <point x="953" y="351" type="curve" smooth="yes"/>
      <point x="953" y="559"/>
      <point x="814" y="635"/>
      <point x="686" y="669" type="curve"/>
      <point x="799" y="712"/>
      <point x="890" y="796"/>
      <point x="890" y="936" type="curve" smooth="yes"/>
      <point x="890" y="1155"/>
      <point x="750" y="1229"/>
      <point x="502" y="1229" type="curve" smooth="yes"/>
      <point x="360" y="1229"/>
      <point x="207" y="1226"/>
      <point x="134" y="1221" type="curve"/>
      <point x="146" y="1154"/>
      <point x="146" y="1000"/>
      <point x="146" y="836" type="curve" smooth="yes"/>
      <point x="146" y="380" type="line"/>
      <point x="146" y="215"/>
      <point x="146" y="67"/>
      <point x="134" y="0" type="curve"/>
      <point x="178" y="-4"/>
      <point x="336" y="-8"/>
    </contour>
    <contour>
      <point x="305" y="585" type="line"/>
      <point x="502" y="585" type="line" smooth="yes"/>
      <point x="696" y="585"/>
      <point x="790" y="505"/>
      <point x="790" y="351" type="curve" smooth="yes"/>
      <point x="790" y="177"/>
      <point x="653" y="125"/>
      <point x="510" y="125" type="curve" smooth="yes"/>
      <point x="416" y="125"/>
      <point x="336" y="128"/>
      <point x="305" y="130" type="curve"/>
    </contour>
  </outline>
</glyph>
<glyph name="F" format="2">
  <advance width="961"/>
  <unicode hex="0046"/>
  <anchor x="497" y="-84" name="L"/>
  <anchor x="497" y="1279" name="U"/>
  <outline>
    <contour>
      <point x="305" y="698" type="line"/>
      <point x="305" y="1083" type="line"/>
      <point x="861" y="1083" type="line"/>
      <point x="861" y="1221" type="line"/>
      <point x="134" y="1221" type="line"/>
      <point x="146" y="1154"/>
      <point x="146" y="1017"/>
      <point x="146" y="853" type="curve" smooth="yes"/>
      <point x="146" y="364" type="line" smooth="yes"/>
      <point x="146" y="199"/>
      <point x="146" y="67"/>
      <point x="134" y="0" type="curve"/>
      <point x="318" y="0" type="line"/>
      <point x="305" y="65"/>
      <point x="305" y="198"/>
      <point x="305" y="364" type="curve" smooth="yes"/>
      <point x="305" y="564" type="line"/>
      <point x="790" y="564" type="line"/>
      <point x="790" y="698" type="line"/>
    </contour>
  </outline>
</glyph>
<glyph name="K" format="2">
  <advance width="1095"/>
  <unicode hex="004B"/>
  <anchor x="226" y="0" name="H"/>
  <anchor x="581" y="-84" name="L"/>
  <anchor x="543" y="1279" name="U"/>
  <outline>
    <contour>
      <point x="823" y="0" type="line"/>
      <point x="1028" y="0" type="line"/>
      <point x="405" y="719" type="line"/>
      <point x="293" y="614" type="line"/>
    </contour>
    <contour>
      <point x="134" y="0" type="curve"/>
      <point x="305" y="0" type="line"/>
      <point x="305" y="1221" type="line"/>
      <point x="134" y="1221" type="line"/>
      <point x="146" y="1154"/>
      <point x="146" y="1022"/>
      <point x="146" y="857" type="curve" smooth="yes"/>
      <point x="146" y="364" type="line" smooth="yes"/>
      <point x="146" y="199"/>
      <point x="146" y="67"/>
    </contour>
    <contour>
      <point x="247" y="588" type="line"/>
      <point x="355" y="623" type="line"/>
      <point x="443" y="619" type="line"/>
      <point x="974" y="1221" type="line"/>
      <point x="773" y="1221" type="line"/>
    </contour>
  </outline>
</glyph>
<glyph name="M" format="2">
  <advance width="1501"/>
  <unicode hex="004D"/>
  <anchor x="1280" y="0" name="H"/>
  <anchor x="740" y="-84" name="L"/>
  <anchor x="740" y="1279" name="U"/>
  <outline>
    <contour>
      <point x="740" y="171" type="line"/>
      <point x="380" y="1221" type="line"/>
      <point x="228" y="1221" type="line"/>
      <point x="284" y="1088" type="line"/>
      <point x="660" y="0" type="line"/>
      <point x="823" y="0" type="line"/>
      <point x="1192" y="1072" type="line"/>
      <point x="1253" y="1221" type="line"/>
      <point x="1104" y="1221" type="line"/>
    </contour>
    <contour>
      <point x="192" y="1221" type="line"/>
      <point x="176" y="767"/>
      <point x="149" y="121"/>
      <point x="134" y="0" type="curve"/>
      <point x="288" y="0" type="line"/>
      <point x="315" y="1007" type="line"/>
      <point x="339" y="1221" type="line"/>
    </contour>
    <contour>
      <point x="1191" y="0" type="line"/>
      <point x="1346" y="0" type="line"/>
      <point x="1328" y="121"/>
      <point x="1302" y="767"/>
      <point x="1287" y="1221" type="curve"/>
      <point x="1141" y="1221" type="line"/>
      <point x="1168" y="1007" type="line"/>
    </contour>
  </outline>
</glyph>
<glyph name="P" format="2">
  <advance width="999"/>
  <unicode hex="0050"/>
  <anchor x="533" y="-84" name="L"/>
  <anchor x="533" y="1279" name="U"/>
  <outline>
    <contour>
      <point x="305" y="472" type="line"/>
      <point x="359" y="466"/>
      <point x="428" y="464"/>
      <point x="489" y="464" type="curve" smooth="yes"/>
      <point x="764" y="464"/>
      <point x="932" y="615"/>
      <point x="932" y="861" type="curve" smooth="yes"/>
      <point x="932" y="1105"/>
      <point x="759" y="1229"/>
      <point x="489" y="1229" type="curve" smooth="yes"/>
      <point x="359" y="1229"/>
      <point x="210" y="1224"/>
      <point x="134" y="1221" type="curve"/>
      <point x="146" y="1154"/>
      <point x="146" y="1000"/>
      <point x="146" y="836" type="curve"/>
      <point x="146" y="364" type="line" smooth="yes"/>
      <point x="146" y="199"/>
      <point x="146" y="67"/>
      <point x="134" y="0" type="curve"/>
      <point x="318" y="0" type="line"/>
      <point x="306" y="65"/>
      <point x="305" y="198"/>
      <point x="305" y="364" type="curve" smooth="yes"/>
    </contour>
    <contour>
      <point x="305" y="602" type="curve"/>
      <point x="305" y="1091" type="line"/>
      <point x="352" y="1094"/>
      <point x="402" y="1095"/>
      <point x="481" y="1095" type="curve" smooth="yes"/>
      <point x="703" y="1095"/>
      <point x="773" y="978"/>
      <point x="773" y="844" type="curve" smooth="yes"/>
      <point x="773" y="710"/>
      <point x="711" y="594"/>
      <point x="477" y="594" type="curve" smooth="yes"/>
      <point x="414" y="594"/>
      <point x="358" y="595"/>
    </contour>
  </outline>
</glyph>
<glyph name="R" format="2">
  <advance width="1091"/>
  <unicode hex="0052"/>
  <anchor x="238" y="0" name="H"/>
  <anchor x="510" y="-84" name="L"/>
  <anchor x="510" y="1279" name="U"/>
  <outline>
    <contour>
      <point x="305" y="523" type="line"/>
      <point x="518" y="523" type="line"/>
      <point x="673" y="523"/>
      <point x="911" y="621"/>
      <point x="911" y="886" type="curve" smooth="yes"/>
      <point x="911" y="1128"/>
      <point x="732" y="1229"/>
      <point x="472" y="1229" type="curve" smooth="yes"/>
      <point x="330" y="1229"/>
      <point x="195" y="1224"/>
      <point x="134" y="1221" type="curve"/>
      <point x="146" y="1154"/>
      <point x="146" y="1000"/>
      <point x="146" y="836" type="curve" smooth="yes"/>
      <point x="146" y="364" type="line" smooth="yes"/>
      <point x="146" y="199"/>
      <point x="146" y="67"/>
      <point x="134" y="0" type="curve"/>
      <point x="318" y="0" type="line"/>
      <point x="306" y="65"/>
      <point x="305" y="199"/>
      <point x="305" y="364" type="curve" smooth="yes"/>
    </contour>
    <contour>
      <point x="305" y="652" type="line"/>
      <point x="305" y="1091" type="line"/>
      <point x="349" y="1093"/>
      <point x="405" y="1095"/>
      <point x="464" y="1095" type="curve" smooth="yes"/>
      <point x="669" y="1095"/>
      <point x="752" y="1017"/>
      <point x="752" y="874" type="curve" smooth="yes"/>
      <point x="752" y="735"/>
      <point x="652" y="652"/>
      <point x="464" y="652" type="curve" smooth="yes"/>
    </contour>
    <contour>
      <point x="828" y="0" type="line"/>
      <point x="1041" y="0" type="line"/>
      <point x="967" y="79"/>
      <point x="764" y="362"/>
      <point x="598" y="594" type="curve"/>
      <point x="469" y="531" type="line"/>
    </contour>
  </outline>
</glyph>
<glyph name="U" format="2">
  <advance width="1204"/>
  <unicode hex="0055"/>
  <anchor x="591" y="0" name="H"/>
  <anchor x="591" y="-84" name="L"/>
  <anchor x="858" y="0" name="O"/>
  <anchor x="1170" y="1003" name="R"/>
  <anchor x="591" y="1279" name="U"/>
  <outline>
    <contour>
      <point x="878" y="1221" type="line"/>
      <point x="878" y="468" type="line" smooth="yes"/>
      <point x="878" y="250"/>
      <point x="809" y="113"/>
      <point x="594" y="113" type="curve" smooth="yes"/>
      <point x="374" y="113"/>
      <point x="305" y="250"/>
      <point x="305" y="468" type="curve" smooth="yes"/>
      <point x="305" y="1221" type="line"/>
      <point x="134" y="1221" type="line"/>
      <point x="145" y="1154"/>
      <point x="146" y="1022"/>
      <point x="146" y="857" type="curve" smooth="yes"/>
      <point x="146" y="431" type="line"/>
      <point x="146" y="159"/>
      <point x="288" y="-21"/>
      <point x="594" y="-21" type="curve" smooth="yes"/>
      <point x="895" y="-21"/>
      <point x="1037" y="159"/>
      <point x="1037" y="431" type="curve"/>
      <point x="1037" y="857" type="line" smooth="yes"/>
      <point x="1037" y="1030"/>
      <point x="1038" y="1154"/>
      <point x="1049" y="1221" type="curve"/>
    </contour>
  </outline>
</glyph>
<glyph name="V" format="2">
  <advance width="1141"/>
  <unicode hex="0056"/>
  <anchor x="568" y="0" name="H"/>
  <anchor x="562" y="-84" name="L"/>
  <anchor x="736" y="0" name="O"/>
  <anchor x="562" y="1279" name="U"/>
  <outline>
    <contour>
      <point x="915" y="1221" type="line"/>
      <point x="562" y="163" type="line"/>
      <point x="209" y="1221" type="line"/>
      <point x="29" y="1221" type="line"/>
      <point x="57" y="1152"/>
      <point x="84" y="1077"/>
      <point x="142" y="915" type="curve" smooth="yes"/>
      <point x="468" y="0" type="line"/>
      <point x="656" y="0" type="line"/>
      <point x="978" y="915" type="line" smooth="yes"/>
      <point x="1035" y="1078"/>
      <point x="1065" y="1152"/>
      <point x="1095" y="1221" type="curve"/>
    </contour>
  </outline>
</glyph>
<glyph name="W" format="2">
  <advance width="1739"/>
  <unicode hex="0057"/>
  <anchor x="859" y="-84" name="L"/>
  <anchor x="859" y="1279" name="U"/>
  <outline>
    <contour>
      <point x="1237" y="0" type="line"/>
      <point x="1333" y="0" type="line"/>
      <point x="1588" y="915" type="line" smooth="yes"/>
      <point x="1633" y="1077"/>
      <point x="1658" y="1152"/>
      <point x="1685" y="1221" type="curve"/>
      <point x="1501" y="1221" type="line"/>
      <point x="1229" y="109" type="line"/>
    </contour>
    <contour>
      <point x="936" y="1221" type="line"/>
      <point x="782" y="1221" type="line"/>
      <point x="828" y="1091" type="line"/>
      <point x="1145" y="0" type="line"/>
      <point x="1237" y="0" type="line"/>
      <point x="1254" y="109" type="line"/>
    </contour>
    <contour>
      <point x="485" y="0" type="line"/>
      <point x="573" y="0" type="line"/>
      <point x="890" y="1091" type="line"/>
      <point x="936" y="1221" type="line"/>
      <point x="782" y="1221" type="line"/>
      <point x="468" y="109" type="line"/>
    </contour>
    <contour>
      <point x="217" y="1221" type="line"/>
      <point x="33" y="1221" type="line"/>
      <point x="59" y="1155"/>
      <point x="85" y="1075"/>
      <point x="130" y="915" type="curve" smooth="yes"/>
      <point x="385" y="0" type="line"/>
      <point x="485" y="0" type="line"/>
      <point x="493" y="109" type="line"/>
    </contour>
  </outline>
</glyph>
<glyph name="X" format="2">
  <advance width="1108"/>
  <unicode hex="0058"/>
  <anchor x="543" y="-84" name="L"/>
  <anchor x="543" y="1279" name="U"/>
  <outline>
    <contour>
      <point x="861" y="0" type="line"/>
      <point x="1053" y="0" type="line"/>
      <point x="1002" y="69"/>
      <point x="974" y="107"/>
      <point x="864" y="281" type="curve" smooth="yes"/>
      <point x="272" y="1221" type="line"/>
      <point x="75" y="1221" type="line"/>
      <point x="129" y="1151"/>
      <point x="168" y="1100"/>
      <point x="276" y="928" type="curve" smooth="yes"/>
    </contour>
    <contour>
      <point x="226" y="0" type="line"/>
      <point x="556" y="543" type="line"/>
      <point x="468" y="683" type="line"/>
      <point x="222" y="284" type="line" smooth="yes"/>
      <point x="115" y="111"/>
      <point x="86" y="71"/>
      <point x="33" y="0" type="curve"/>
    </contour>
    <contour>
      <point x="825" y="1221" type="line"/>
      <point x="538" y="751" type="line"/>
      <point x="626" y="611" type="line"/>
      <point x="823" y="928" type="line" smooth="yes"/>
      <point x="928" y="1098"/>
      <point x="970" y="1156"/>
      <point x="1022" y="1221" type="curve"/>
    </contour>
  </outline>
</glyph>
<glyph name="Y" format="2">
  <advance width="1104"/>
  <unicode hex="0059"/>
  <anchor x="543" y="-84" name="L"/>
  <anchor x="543" y="1279" name="U"/>
  <outline>
    <contour>
      <point x="222" y="1221" type="line"/>
      <point x="29" y="1221" type="line"/>
      <point x="120" y="1099"/>
      <point x="178" y="1000"/>
      <point x="242" y="890" type="curve" smooth="yes"/>
      <point x="491" y="464" type="line"/>
      <point x="603" y="578" type="line"/>
    </contour>
    <contour>
      <point x="451" y="0" type="curve"/>
      <point x="635" y="0" type="line"/>
      <point x="623" y="67"/>
      <point x="623" y="199"/>
      <point x="623" y="364" type="curve" smooth="yes"/>
      <point x="623" y="561" type="line"/>
      <point x="464" y="561" type="line"/>
      <point x="464" y="364" type="line" smooth="yes"/>
      <point x="464" y="199"/>
      <point x="464" y="67"/>
    </contour>
    <contour>
      <point x="865" y="1221" type="line"/>
      <point x="501" y="577" type="line"/>
      <point x="597" y="459" type="line"/>
      <point x="849" y="890" type="line" smooth="yes"/>
      <point x="913" y="999"/>
      <point x="968" y="1092"/>
      <point x="1058" y="1221" type="curve"/>
    </contour>
  </outline>
</glyph>
<glyph name="backslash" format="2">
  <advance width="573"/>
  <unicode hex="005C"/>
  <outline>
    <contour>
      <point x="153" y="1354" type="line" smooth="yes"/>
      <point x="150" y="1366"/>
      <point x="133" y="1373"/>
      <point x="100" y="1373" type="curve" smooth="yes"/>
      <point x="63" y="1373"/>
      <point x="47" y="1366"/>
      <point x="50" y="1354" type="curve" smooth="yes"/>
      <point x="424" y="-2" type="line" smooth="yes"/>
      <point x="427" y="-14"/>
      <point x="445" y="-20"/>
      <point x="478" y="-20" type="curve" smooth="yes"/>
      <point x="511" y="-20"/>
      <point x="526" y="-14"/>
      <point x="523" y="-2" type="curve" smooth="yes"/>
    </contour>
  </outline>
</glyph>
<glyph name="bracketright" format="2">
  <advance width="712"/>
  <unicode hex="005D"/>
  <outline>
    <contour>
      <point x="142" y="1076" type="line"/>
      <point x="356" y="1076" type="line"/>
      <point x="356" y="-225" type="line"/>
      <point x="142" y="-225" type="line"/>
      <point x="142" y="-285" type="line"/>
      <point x="456" y="-285" type="line"/>
      <point x="456" y="1136" type="line"/>
      <point x="142" y="1136" type="line"/>
    </contour>
  </outline>
</glyph>
<glyph name="c" format="2">
  <advance width="853"/>
  <unicode hex="0063"/>
  <anchor x="485" y="0" name="H"/>
  <anchor x="485" y="-84" name="L"/>
  <anchor x="853" y="836" name="R"/>
  <anchor x="477" y="920" name="U"/>
  <outline>
    <contour>
      <point x="485" y="-21" type="curve" smooth="yes"/>
      <point x="610" y="-21"/>
      <point x="689" y="8"/>
      <point x="773" y="71" type="curve"/>
      <point x="757" y="217" type="line"/>
      <point x="684" y="153"/>
      <point x="602" y="117"/>
      <point x="502" y="117" type="curve" smooth="yes"/>
      <point x="339" y="117"/>
      <point x="238" y="238"/>
      <point x="238" y="418" type="curve" smooth="yes"/>
      <point x="238" y="615"/>
      <point x="353" y="732"/>
      <point x="502" y="732" type="curve" smooth="yes"/>
      <point x="588" y="732"/>
      <point x="660" y="703"/>
      <point x="736" y="648" type="curve"/>
      <point x="765" y="798" type="line"/>
      <point x="704" y="840"/>
      <point x="625" y="869"/>
      <point x="514" y="869" type="curve" smooth="yes"/>
      <point x="248" y="869"/>
      <point x="79" y="662"/>
      <point x="79" y="410" type="curve" smooth="yes"/>
      <point x="79" y="143"/>
      <point x="261" y="-21"/>
    </contour>
  </outline>
</glyph>
<glyph name="h" format="2">
  <advance width="982"/>
  <unicode hex="0068"/>
  <anchor x="209" y="0" name="H"/>
  <anchor x="489" y="-84" name="L"/>
  <anchor x="489" y="1367" name="U"/>
  <outline>
    <contour>
      <point x="715" y="0" type="curve"/>
      <point x="869" y="0" type="line"/>
      <point x="869" y="165"/>
      <point x="869" y="422"/>
      <point x="869" y="523" type="curve" smooth="yes"/>
      <point x="869" y="752"/>
      <point x="772" y="869"/>
      <point x="594" y="869" type="curve" smooth="yes"/>
      <point x="477" y="869"/>
      <point x="358" y="810"/>
      <point x="276" y="694" type="curve"/>
      <point x="276" y="722"/>
      <point x="276" y="1078"/>
      <point x="276" y="1338" type="curve"/>
      <point x="109" y="1338" type="line"/>
      <point x="121" y="1266"/>
      <point x="121" y="1124"/>
      <point x="121" y="945" type="curve" smooth="yes"/>
      <point x="121" y="826"/>
      <point x="121" y="336"/>
      <point x="121" y="0" type="curve"/>
      <point x="276" y="0" type="line"/>
      <point x="276" y="485" type="line"/>
      <point x="313" y="599"/>
      <point x="427" y="723"/>
      <point x="548" y="723" type="curve" smooth="yes"/>
      <point x="660" y="723"/>
      <point x="715" y="669"/>
      <point x="715" y="460" type="curve" smooth="yes"/>
      <point x="715" y="376"/>
      <point x="715" y="148"/>
    </contour>
  </outline>
</glyph>
<glyph name="j" format="2">
  <advance width="497"/>
  <unicode hex="006A"/>
  <anchor x="105" y="-418" name="L"/>
  <anchor x="262" y="920" name="U"/>
  <outline>
    <contour>
      <point x="25" y="-393" type="curve" smooth="yes"/>
      <point x="216" y="-393"/>
      <point x="339" y="-291"/>
      <point x="339" y="21" type="curve" smooth="yes"/>
      <point x="339" y="853" type="line"/>
      <point x="171" y="853" type="line"/>
      <point x="182" y="765"/>
      <point x="184" y="606"/>
      <point x="184" y="443" type="curve" smooth="yes"/>
      <point x="184" y="-21" type="line" smooth="yes"/>
      <point x="184" y="-186"/>
      <point x="123" y="-251"/>
      <point x="33" y="-251" type="curve" smooth="yes"/>
      <point x="-13" y="-251"/>
      <point x="-93" y="-228"/>
      <point x="-130" y="-201" type="curve"/>
      <point x="-159" y="-339" type="line"/>
      <point x="-109" y="-373"/>
      <point x="-22" y="-393"/>
    </contour>
    <contour>
      <point x="155" y="1124" type="curve" smooth="yes"/>
      <point x="155" y="1063"/>
      <point x="197" y="1012"/>
      <point x="259" y="1012" type="curve" smooth="yes"/>
      <point x="322" y="1012"/>
      <point x="368" y="1063"/>
      <point x="368" y="1124" type="curve" smooth="yes"/>
      <point x="368" y="1186"/>
      <point x="322" y="1237"/>
      <point x="259" y="1237" type="curve" smooth="yes"/>
      <point x="197" y="1237"/>
      <point x="155" y="1186"/>
    </contour>
  </outline>
</glyph>
<glyph name="o" format="2">
  <advance width="953"/>
  <unicode hex="006F"/>
  <anchor x="477" y="0" name="H"/>
  <anchor x="477" y="-84" name="L"/>
  <anchor x="698" y="0" name="O"/>
  <anchor x="953" y="836" name="R"/>
  <anchor x="477" y="920" name="U"/>
  <outline>
    <contour>
      <point x="79" y="422" type="curve" smooth="yes"/>
      <point x="79" y="135"/>
      <point x="239" y="-21"/>
      <point x="468" y="-21" type="curve" smooth="yes"/>
      <point x="688" y="-21"/>
      <point x="874" y="135"/>
      <point x="874" y="422" type="curve" smooth="yes"/>
      <point x="874" y="710"/>
      <point x="715" y="869"/>
      <point x="485" y="869" type="curve" smooth="yes"/>
      <point x="265" y="869"/>
      <point x="79" y="710"/>
    </contour>
    <contour>
      <point x="234" y="422" type="curve" smooth="yes"/>
      <point x="234" y="618"/>
      <point x="341" y="736"/>
      <point x="477" y="736" type="curve" smooth="yes"/>
      <point x="620" y="736"/>
      <point x="719" y="618"/>
      <point x="719" y="422" type="curve" smooth="yes"/>
      <point x="719" y="227"/>
      <point x="611" y="113"/>
      <point x="477" y="113" type="curve" smooth="yes"/>
      <point x="333" y="113"/>
      <point x="234" y="227"/>
    </contour>
  </outline>
</glyph>
<glyph name="x" format="2">
  <advance width="907"/>
  <unicode hex="0078"/>
  <anchor x="752" y="0" name="H"/>
  <anchor x="453" y="-84" name="L"/>
  <anchor x="453" y="920" name="U"/>
  <outline>
    <contour>
      <point x="673" y="0" type="line"/>
      <point x="865" y="0" type="line"/>
      <point x="775" y="115"/>
      <point x="754" y="142"/>
      <point x="694" y="226" type="curve" smooth="yes"/>
      <point x="242" y="853" type="line"/>
      <point x="50" y="853" type="line"/>
      <point x="140" y="742"/>
      <point x="170" y="705"/>
      <point x="226" y="627" type="curve"/>
    </contour>
    <contour>
      <point x="230" y="0" type="line"/>
      <point x="465" y="338" type="line"/>
      <point x="409" y="515" type="line"/>
      <point x="209" y="226" type="line" smooth="yes"/>
      <point x="158" y="152"/>
      <point x="134" y="120"/>
      <point x="42" y="0" type="curve"/>
    </contour>
    <contour>
      <point x="665" y="853" type="line"/>
      <point x="435" y="514" type="line"/>
      <point x="489" y="339" type="line"/>
      <point x="686" y="627" type="line" smooth="yes"/>
      <point x="738" y="703"/>
      <point x="767" y="741"/>
      <point x="853" y="853" type="curve"/>
    </contour>
  </outline>
</glyph>
<glyph name="z" format="2">
  <advance width="869"/>
  <unicode hex="007A"/>
  <anchor x="439" y="0" name="H"/>
  <anchor x="439" y="-84" name="L"/>
  <anchor x="439" y="920" name="U"/>
  <outline>
    <contour>
      <point x="113" y="853" type="line"/>
      <point x="113" y="715" type="line"/>
      <point x="144" y="727"/>
      <point x="193" y="727"/>
      <point x="242" y="727" type="curve" smooth="yes"/>
      <point x="568" y="727" type="line"/>
      <point x="88" y="92" type="line"/>
      <point x="88" y="0" type="line"/>
      <point x="790" y="0" type="line"/>
      <point x="790" y="138" type="line"/>
      <point x="740" y="125"/>
      <point x="688" y="125"/>
      <point x="640" y="125" type="curve" smooth="yes"/>
      <point x="280" y="125" type="line"/>
      <point x="777" y="773" type="line"/>
      <point x="777" y="853" type="line"/>
    </contour>
  </outline>
</glyph>
<glyph name="asciitilde" format="2">
  <advance width="1044"/>
  <unicode hex="007E"/>
  <outline>
    <contour>
      <point x="954" y="609" type="line"/>
      <point x="899" y="499"/>
      <point x="831" y="444"/>
      <point x="753" y="444" type="curve" smooth="yes"/>
      <point x="721" y="444"/>
      <point x="650" y="466"/>
      <point x="539" y="515" type="curve" smooth="yes"/>
      <point x="429" y="564"/>
      <point x="350" y="586"/>
      <point x="303" y="586" type="curve" smooth="yes"/>
      <point x="242" y="586"/>
      <point x="189" y="562"/>
      <point x="141" y="515" type="curve" smooth="yes"/>
      <point x="110" y="484"/>
      <point x="76" y="434"/>
      <point x="37" y="364" type="curve"/>
      <point x="90" y="296" type="line"/>
      <point x="123" y="353"/>
      <point x="150" y="393"/>
      <point x="170" y="414" type="curve" smooth="yes"/>
      <point x="209" y="454"/>
      <point x="249" y="474"/>
      <point x="294" y="474" type="curve" smooth="yes"/>
      <point x="338" y="474"/>
      <point x="411" y="450"/>
      <point x="513" y="404" type="curve" smooth="yes"/>
      <point x="616" y="358"/>
      <point x="693" y="335"/>
      <point x="743" y="335" type="curve" smooth="yes"/>
      <point x="847" y="335"/>
      <point x="935" y="403"/>
      <point x="1007" y="539" type="curve"/>
    </contour>
  </outline>
</glyph>
<glyph name="exclamdown" format="2">
  <advance width="630"/>
  <unicode hex="00A1"/>
  <outline>
    <contour>
      <point x="401" y="-441" type="curve" smooth="yes"/>
      <point x="401" y="-399"/>
      <point x="399" y="-205"/>
      <point x="397" y="-181" type="curve" smooth="yes"/>
      <point x="337" y="436" type="line" smooth="yes"/>
      <point x="336" y="447"/>
      <point x="325" y="452"/>
      <point x="314" y="452" type="curve" smooth="yes"/>
      <point x="303" y="452"/>
      <point x="292" y="447"/>
      <point x="291" y="436" type="curve" smooth="yes"/>
      <point x="235" y="-181" type="line" smooth="yes"/>
      <point x="233" y="-205"/>
      <point x="230" y="-399"/>
      <point x="230" y="-441" type="curve" smooth="yes"/>
      <point x="230" y="-479"/>
      <point x="254" y="-490"/>
      <point x="317" y="-490" type="curve" smooth="yes"/>
      <point x="379" y="-490"/>
      <point x="401" y="-476"/>
    </contour>
    <contour>
      <point x="431" y="740" type="curve" smooth="yes"/>
      <point x="431" y="820"/>
      <point x="382" y="870"/>
      <point x="316" y="870" type="curve" smooth="yes"/>
      <point x="252" y="870"/>
      <point x="201" y="820"/>
      <point x="201" y="740" type="curve" smooth="yes"/>
      <point x="201" y="660"/>
      <point x="252" y="610"/>
      <point x="316" y="610" type="curve" smooth="yes"/>
      <point x="382" y="610"/>
      <point x="431" y="660"/>
    </contour>
  </outline>
</glyph>
<glyph name="macron" format="2">
  <advance width="594"/>
  <unicode hex="00AF"/>
  <outline>
    <contour>
      <point x="0" y="1037" type="line"/>
      <point x="594" y="1037" type="line"/>
      <point x="594" y="1162" type="line"/>
      <point x="0" y="1162" type="line"/>
    </contour>
  </outline>
</glyph>
<glyph name="paragraph" format="2">
  <advance width="857"/>
  <unicode hex="00B6"/>
  <outline>
    <contour>
      <point x="807" y="1124" type="line"/>
      <point x="807" y="1221" type="line"/>
      <point x="368" y="1221" type="line" smooth="yes"/>
      <point x="236" y="1221"/>
      <point x="42" y="1155"/>
      <point x="42" y="930" type="curve" smooth="yes"/>
      <point x="42" y="706"/>
      <point x="237" y="640"/>
      <point x="351" y="640" type="curve"/>
      <point x="351" y="0" type="line"/>
      <point x="464" y="0" type="line"/>
      <point x="464" y="1124" type="line"/>
      <point x="598" y="1124" type="line"/>
      <point x="598" y="0" type="line"/>
      <point x="711" y="0" type="line"/>
      <point x="711" y="1124" type="line"/>
    </contour>
  </outline>
</glyph>
<glyph name="onequarter" format="2">
  <advance width="1338"/>
  <unicode hex="00BC"/>
  <outline>
    <contour>
      <point x="1271" y="217" type="line"/>
      <point x="1271" y="305" type="line"/>
      <point x="1158" y="305" type="line"/>
      <point x="1158" y="744" type="line"/>
      <point x="1049" y="744" type="line"/>
      <point x="723" y="305" type="line"/>
      <point x="723" y="217" type="line"/>
      <point x="1049" y="217" type="line"/>
      <point x="1049" y="0" type="line"/>
      <point x="1158" y="0" type="line"/>
      <point x="1158" y="217" type="line"/>
    </contour>
    <contour>
      <point x="88" y="1233" type="line"/>
      <point x="105" y="1141" type="line"/>
      <point x="251" y="1229" type="line"/>
      <point x="251" y="681" type="line"/>
      <point x="96" y="681" type="line"/>
      <point x="96" y="594" type="line"/>
      <point x="510" y="594" type="line"/>
      <point x="510" y="681" type="line"/>
      <point x="359" y="681" type="line"/>
      <point x="359" y="1338" type="line"/>
      <point x="263" y="1338" type="line"/>
    </contour>
    <contour>
      <point x="192" y="-42" type="line"/>
      <point x="301" y="-42" type="line"/>
      <point x="1206" y="1338" type="line"/>
      <point x="1096" y="1338" type="line"/>
    </contour>
    <contour>
      <point x="836" y="305" type="line"/>
      <point x="1049" y="602" type="line"/>
      <point x="1049" y="305" type="line"/>
    </contour>
  </outline>
</glyph>
<glyph name="threequarters" format="2">
  <advance width="1338"/>
  <unicode hex="00BE"/>
  <outline>
    <contour>
      <point x="105" y="656" type="line"/>
      <point x="152" y="614"/>
      <point x="230" y="581"/>
      <point x="314" y="581" type="curve" smooth="yes"/>
      <point x="458" y="581"/>
      <point x="564" y="689"/>
      <point x="564" y="807" type="curve" smooth="yes"/>
      <point x="564" y="930"/>
      <point x="468" y="997"/>
      <point x="397" y="1003" type="curve"/>
      <point x="468" y="1012"/>
      <point x="539" y="1076"/>
      <point x="539" y="1158" type="curve" smooth="yes"/>
      <point x="539" y="1265"/>
      <point x="455" y="1342"/>
      <point x="330" y="1342" type="curve" smooth="yes"/>
      <point x="257" y="1342"/>
      <point x="196" y="1319"/>
      <point x="138" y="1275" type="curve"/>
      <point x="159" y="1187" type="line"/>
      <point x="227" y="1236"/>
      <point x="268" y="1246"/>
      <point x="322" y="1246" type="curve" smooth="yes"/>
      <point x="386" y="1246"/>
      <point x="439" y="1221"/>
      <point x="439" y="1154" type="curve" smooth="yes"/>
      <point x="439" y="1092"/>
      <point x="375" y="1041"/>
      <point x="276" y="1041" type="curve" smooth="yes"/>
      <point x="238" y="1041" type="line"/>
      <point x="238" y="949" type="line"/>
      <point x="276" y="949" type="line" smooth="yes"/>
      <point x="395" y="949"/>
      <point x="460" y="897"/>
      <point x="460" y="815" type="curve" smooth="yes"/>
      <point x="460" y="718"/>
      <point x="394" y="677"/>
      <point x="309" y="677" type="curve" smooth="yes"/>
      <point x="237" y="677"/>
      <point x="163" y="713"/>
      <point x="117" y="765" type="curve"/>
    </contour>
    <contour>
      <point x="1088" y="1338" type="line"/>
      <point x="192" y="-42" type="line"/>
      <point x="301" y="-42" type="line"/>
      <point x="1197" y="1338" type="line"/>
    </contour>
    <contour>
      <point x="1267" y="217" type="line"/>
      <point x="1267" y="305" type="line"/>
      <point x="1154" y="305" type="line"/>
      <point x="1154" y="744" type="line"/>
      <point x="1045" y="744" type="line"/>
      <point x="719" y="305" type="line"/>
      <point x="719" y="217" type="line"/>
      <point x="1045" y="217" type="line"/>
      <point x="1045" y="0" type="line"/>
      <point x="1154" y="0" type="line"/>
      <point x="1154" y="217" type="line"/>
    </contour>
    <contour>
      <point x="832" y="305" type="line"/>
      <point x="1045" y="602" type="line"/>
      <point x="1045" y="305" type="line"/>
    </contour>
  </outline>
</glyph>
<glyph name="questiondown" format="2">
  <advance width="879"/>
  <unicode hex="00BF"/>
  <outline>
    <contour>
      <point x="93" y="-184" type="curve" smooth="yes"/>
      <point x="93" y="-378"/>
      <point x="242" y="-490"/>
      <point x="430" y="-490" type="curve" smooth="yes"/>
      <point x="615" y="-490"/>
      <point x="718" y="-382"/>
      <point x="767" y="-301" type="curve" smooth="yes"/>
      <point x="770" y="-297"/>
      <point x="771" y="-292"/>
      <point x="771" y="-288" type="curve" smooth="yes"/>
      <point x="771" y="-275"/>
      <point x="757" y="-263"/>
      <point x="730" y="-248" type="curve" smooth="yes"/>
      <point x="712" y="-238"/>
      <point x="698" y="-232"/>
      <point x="688" y="-232" type="curve" smooth="yes"/>
      <point x="679" y="-232"/>
      <point x="672" y="-237"/>
      <point x="666" y="-248" type="curve" smooth="yes"/>
      <point x="629" y="-317"/>
      <point x="547" y="-390"/>
      <point x="430" y="-390" type="curve" smooth="yes"/>
      <point x="312" y="-390"/>
      <point x="200" y="-313"/>
      <point x="200" y="-167" type="curve" smooth="yes"/>
      <point x="200" y="68"/>
      <point x="490" y="118"/>
      <point x="490" y="140" type="curve" smooth="yes"/>
      <point x="490" y="165"/>
      <point x="490" y="404"/>
      <point x="490" y="432" type="curve" smooth="yes"/>
      <point x="490" y="447"/>
      <point x="479" y="450"/>
      <point x="430" y="450" type="curve" smooth="yes"/>
      <point x="386" y="450"/>
      <point x="370" y="442"/>
      <point x="370" y="431" type="curve" smooth="yes"/>
      <point x="370" y="404"/>
      <point x="370" y="258"/>
      <point x="370" y="186" type="curve" smooth="yes"/>
      <point x="370" y="169"/>
      <point x="93" y="96"/>
    </contour>
    <contour>
      <point x="315" y="740" type="curve" smooth="yes"/>
      <point x="315" y="660"/>
      <point x="365" y="610"/>
      <point x="431" y="610" type="curve" smooth="yes"/>
      <point x="495" y="610"/>
      <point x="545" y="660"/>
      <point x="545" y="740" type="curve" smooth="yes"/>
      <point x="545" y="820"/>
      <point x="495" y="870"/>
      <point x="431" y="870" type="curve" smooth="yes"/>
      <point x="365" y="870"/>
      <point x="315" y="820"/>
    </contour>
  </outline>
</glyph>
<glyph name="Thorn" format="2">
  <advance width="1000"/>
  <unicode hex="00DE"/>
  <anchor x="533" y="-84" name="L"/>
  <anchor x="533" y="1279" name="U"/>
  <outline>
    <contour>
      <point x="134" y="0" type="curve"/>
      <point x="318" y="0" type="line"/>
      <point x="309" y="47"/>
      <point x="305" y="169"/>
      <point x="305" y="247" type="curve"/>
      <point x="359" y="241"/>
      <point x="429" y="238"/>
      <point x="490" y="238" type="curve" smooth="yes"/>
      <point x="765" y="238"/>
      <point x="933" y="390"/>
      <point x="933" y="635" type="curve" smooth="yes"/>
      <point x="933" y="879"/>
      <point x="760" y="1003"/>
      <point x="490" y="1003" type="curve" smooth="yes"/>
      <point x="424" y="1003"/>
      <point x="362" y="1002"/>
      <point x="305" y="1001" type="curve"/>
      <point x="305" y="1221" type="line"/>
      <point x="134" y="1221" type="line"/>
      <point x="146" y="1154"/>
      <point x="146" y="1000"/>
      <point x="146" y="836" type="curve" smooth="yes"/>
      <point x="146" y="364" type="line" smooth="yes"/>
      <point x="146" y="199"/>
      <point x="146" y="67"/>
    </contour>
    <contour>
      <point x="305" y="376" type="curve"/>
      <point x="305" y="865" type="line"/>
      <point x="362" y="868"/>
      <point x="402" y="869"/>
      <point x="481" y="869" type="curve" smooth="yes"/>
      <point x="703" y="869"/>
      <point x="773" y="752"/>
      <point x="773" y="619" type="curve" smooth="yes"/>
      <point x="773" y="484"/>
      <point x="711" y="368"/>
      <point x="477" y="368" type="curve" smooth="yes"/>
      <point x="414" y="368"/>
      <point x="358" y="370"/>
    </contour>
  </outline>
</glyph>
<glyph name="thorn" format="2">
  <advance width="978"/>
  <unicode hex="00FE"/>
  <anchor x="493" y="-418" name="L"/>
  <anchor x="518" y="1367" name="U"/>
  <outline>
    <contour>
      <point x="899" y="447" type="curve" smooth="yes"/>
      <point x="899" y="692"/>
      <point x="772" y="869"/>
      <point x="581" y="869" type="curve" smooth="yes"/>
      <point x="457" y="869"/>
      <point x="349" y="793"/>
      <point x="284" y="710" type="curve"/>
      <point x="284" y="1338" type="line"/>
      <point x="113" y="1338" type="line"/>
      <point x="124" y="1241"/>
      <point x="130" y="1107"/>
      <point x="130" y="945" type="curve" smooth="yes"/>
      <point x="130" y="-410" type="line"/>
      <point x="305" y="-410" type="line"/>
      <point x="291" y="-339"/>
      <point x="284" y="-259"/>
      <point x="284" y="-125" type="curve"/>
      <point x="284" y="71" type="line"/>
      <point x="364" y="15"/>
      <point x="429" y="-21"/>
      <point x="518" y="-21" type="curve" smooth="yes"/>
      <point x="728" y="-21"/>
      <point x="899" y="161"/>
    </contour>
    <contour>
      <point x="744" y="422" type="curve" smooth="yes"/>
      <point x="744" y="233"/>
      <point x="636" y="117"/>
      <point x="518" y="117" type="curve" smooth="yes"/>
      <point x="441" y="117"/>
      <point x="399" y="137"/>
      <point x="284" y="217" type="curve"/>
      <point x="284" y="481" type="line"/>
      <point x="346" y="642"/>
      <point x="456" y="727"/>
      <point x="552" y="727" type="curve" smooth="yes"/>
      <point x="672" y="727"/>
      <point x="744" y="608"/>
    </contour>
  </outline>
</glyph>
<glyph name="oe" format="2">
  <advance width="1555"/>
  <unicode hex="0153"/>
  <anchor x="827" y="0" name="H"/>
  <anchor x="798" y="-84" name="L"/>
  <anchor x="1407" y="0" name="O"/>
  <anchor x="1555" y="836" name="R"/>
  <anchor x="798" y="920" name="U"/>
  <outline>
    <contour>
      <point x="79" y="424" type="curve" smooth="yes"/>
      <point x="79" y="136"/>
      <point x="239" y="-21"/>
      <point x="468" y="-21" type="curve" smooth="yes"/>
      <point x="600" y="-21"/>
      <point x="720" y="36"/>
      <point x="794" y="144" type="curve"/>
      <point x="869" y="35"/>
      <point x="990" y="-21"/>
      <point x="1120" y="-21" type="curve" smooth="yes"/>
      <point x="1249" y="-21"/>
      <point x="1353" y="2"/>
      <point x="1471" y="63" type="curve"/>
      <point x="1455" y="201" type="line"/>
      <point x="1353" y="139"/>
      <point x="1249" y="117"/>
      <point x="1141" y="117" type="curve" smooth="yes"/>
      <point x="990" y="117"/>
      <point x="879" y="210"/>
      <point x="874" y="405" type="curve"/>
      <point x="1466" y="405" type="line"/>
      <point x="1467" y="421"/>
      <point x="1467" y="456"/>
      <point x="1467" y="471" type="curve" smooth="yes"/>
      <point x="1467" y="659"/>
      <point x="1396" y="869"/>
      <point x="1120" y="869" type="curve" smooth="yes"/>
      <point x="979" y="869"/>
      <point x="869" y="811"/>
      <point x="799" y="710" type="curve"/>
      <point x="732" y="814"/>
      <point x="620" y="869"/>
      <point x="485" y="869" type="curve" smooth="yes"/>
      <point x="265" y="869"/>
      <point x="79" y="711"/>
    </contour>
    <contour>
      <point x="234" y="424" type="curve" smooth="yes"/>
      <point x="234" y="619"/>
      <point x="341" y="736"/>
      <point x="477" y="736" type="curve" smooth="yes"/>
      <point x="620" y="736"/>
      <point x="719" y="619"/>
      <point x="719" y="424" type="curve" smooth="yes"/>
      <point x="719" y="229"/>
      <point x="611" y="113"/>
      <point x="477" y="113" type="curve" smooth="yes"/>
      <point x="333" y="113"/>
      <point x="234" y="229"/>
    </contour>
    <contour>
      <point x="1108" y="744" type="curve" smooth="yes"/>
      <point x="1229" y="744"/>
      <point x="1317" y="666"/>
      <point x="1317" y="523" type="curve"/>
      <point x="880" y="523" type="line"/>
      <point x="905" y="674"/>
      <point x="986" y="744"/>
    </contour>
  </outline>
</glyph>
<glyph name="caron" format="2">
  <advance width="711"/>
  <unicode hex="02C7"/>
  <anchor x="355" y="1367" name="U"/>
  <outline>
    <contour>
      <point x="585" y="1338" type="line"/>
      <point x="355" y="1104" type="line"/>
      <point x="125" y="1338" type="line"/>
      <point x="0" y="1338" type="line"/>
      <point x="284" y="978" type="line"/>
      <point x="426" y="978" type="line"/>
      <point x="711" y="1338" type="line"/>
    </contour>
  </outline>
</glyph>
<glyph name="breve" format="2">
  <advance width="627"/>
  <unicode hex="02D8"/>
  <anchor x="314" y="1367" name="U"/>
  <outline>
    <contour>
      <point x="627" y="1296" type="curve"/>
      <point x="525" y="1296" type="line"/>
      <point x="508" y="1183"/>
      <point x="423" y="1087"/>
      <point x="314" y="1087" type="curve" smooth="yes"/>
      <point x="205" y="1087"/>
      <point x="114" y="1183"/>
      <point x="100" y="1296" type="curve"/>
      <point x="0" y="1296" type="line"/>
      <point x="0" y="1134"/>
      <point x="117" y="961"/>
      <point x="314" y="961" type="curve" smooth="yes"/>
      <point x="508" y="961"/>
      <point x="627" y="1134"/>
    </contour>
  </outline>
</glyph>
<glyph name="ogonek" format="2">
  <advance width="372"/>
  <unicode hex="02DB"/>
  <anchor x="297" y="-334" name="L"/>
  <outline>
    <contour>
      <point x="171" y="0" type="line"/>
      <point x="84" y="-42"/>
      <point x="38" y="-101"/>
      <point x="38" y="-188" type="curve" smooth="yes"/>
      <point x="38" y="-288"/>
      <point x="136" y="-359"/>
      <point x="238" y="-359" type="curve" smooth="yes"/>
      <point x="300" y="-359"/>
      <point x="361" y="-333"/>
      <point x="410" y="-284" type="curve"/>
      <point x="385" y="-201" type="line"/>
      <point x="354" y="-237"/>
      <point x="291" y="-263"/>
      <point x="255" y="-263" type="curve" smooth="yes"/>
      <point x="193" y="-263"/>
      <point x="155" y="-226"/>
      <point x="155" y="-163" type="curve" smooth="yes"/>
      <point x="155" y="-105"/>
      <point x="202" y="-54"/>
      <point x="288" y="0" type="curve"/>
    </contour>
  </outline>
</glyph>
<glyph name="circumflexcomb" format="2">
  <unicode hex="0302"/>
  <anchor x="-477" y="1367" name="U"/>
  <anchor x="-477" y="920" name="_U"/>
  <outline>
    <contour>
      <point x="-121" y="978" type="line"/>
      <point x="-405" y="1338" type="line"/>
      <point x="-548" y="1338" type="line"/>
      <point x="-832" y="978" type="line"/>
      <point x="-706" y="978" type="line"/>
      <point x="-477" y="1212" type="line"/>
      <point x="-247" y="978" type="line"/>
    </contour>
  </outline>
</glyph>
<glyph name="ringcomb" format="2">
  <unicode hex="030A"/>
  <anchor x="-477" y="1367" name="U"/>
  <anchor x="-478" y="920" name="_U"/>
  <outline>
    <contour>
      <point x="-561" y="1158" type="curve" smooth="yes"/>
      <point x="-561" y="1208"/>
      <point x="-527" y="1241"/>
      <point x="-477" y="1241" type="curve" smooth="yes"/>
      <point x="-427" y="1241"/>
      <point x="-394" y="1208"/>
      <point x="-394" y="1158" type="curve" smooth="yes"/>
      <point x="-394" y="1108"/>
      <point x="-427" y="1074"/>
      <point x="-477" y="1074" type="curve" smooth="yes"/>
      <point x="-527" y="1074"/>
      <point x="-561" y="1108"/>
    </contour>
    <contour>
      <point x="-657" y="1158" type="curve" smooth="yes"/>
      <point x="-657" y="1058"/>
      <point x="-578" y="978"/>
      <point x="-477" y="978" type="curve" smooth="yes"/>
      <point x="-377" y="978"/>
      <point x="-298" y="1058"/>
      <point x="-298" y="1158" type="curve" smooth="yes"/>
      <point x="-298" y="1258"/>
      <point x="-377" y="1338"/>
      <point x="-477" y="1338" type="curve" smooth="yes"/>
      <point x="-578" y="1338"/>
      <point x="-657" y="1258"/>
    </contour>
  </outline>
</glyph>
<glyph name="uni1981" format="2">
  <advance width="1669"/>
  <unicode hex="1981"/>
  <outline>
    <contour>
      <point x="879" y="422" type="curve" smooth="yes"/>
      <point x="879" y="691"/>
      <point x="706" y="870"/>
      <point x="458" y="870" type="curve" smooth="yes"/>
      <point x="321" y="870"/>
      <point x="203" y="815"/>
      <point x="103" y="687" type="curve" smooth="yes"/>
      <point x="100" y="683"/>
      <point x="98" y="679"/>
      <point x="98" y="675" type="curve" smooth="yes"/>
      <point x="98" y="668"/>
      <point x="102" y="661"/>
      <point x="108" y="657" type="curve"/>
      <point x="173" y="607" type="line"/>
      <point x="177" y="604"/>
      <point x="181" y="603"/>
      <point x="185" y="603" type="curve" smooth="yes"/>
      <point x="191" y="603"/>
      <point x="197" y="606"/>
      <point x="201" y="612" type="curve" smooth="yes"/>
      <point x="277" y="712"/>
      <point x="354" y="753"/>
      <point x="458" y="753" type="curve" smooth="yes"/>
      <point x="619" y="753"/>
      <point x="762" y="645"/>
      <point x="762" y="422" type="curve" smooth="yes"/>
      <point x="762" y="186"/>
      <point x="614" y="97"/>
      <point x="468" y="97" type="curve" smooth="yes"/>
      <point x="364" y="97"/>
      <point x="286" y="137"/>
      <point x="210" y="237" type="curve" smooth="yes"/>
      <point x="206" y="243"/>
      <point x="200" y="247"/>
      <point x="193" y="247" type="curve" smooth="yes"/>
      <point x="190" y="247"/>
      <point x="186" y="246"/>
      <point x="182" y="243" type="curve" smooth="yes"/>
      <point x="118" y="193" type="line" smooth="yes"/>
      <point x="112" y="188"/>
      <point x="108" y="181"/>
      <point x="108" y="174" type="curve" smooth="yes"/>
      <point x="108" y="170"/>
      <point x="109" y="166"/>
      <point x="112" y="163" type="curve" smooth="yes"/>
      <point x="212" y="35"/>
      <point x="330" y="-20"/>
      <point x="468" y="-20" type="curve" smooth="yes"/>
      <point x="707" y="-20"/>
      <point x="879" y="137"/>
    </contour>
    <contour>
      <point x="1566" y="449" type="curve" smooth="yes"/>
      <point x="1566" y="722"/>
      <point x="1390" y="870"/>
      <point x="1131" y="870" type="curve" smooth="yes"/>
      <point x="939" y="870"/>
      <point x="815" y="761"/>
      <point x="734" y="676" type="curve"/>
      <point x="732" y="673"/>
      <point x="730" y="669"/>
      <point x="730" y="665" type="curve" smooth="yes"/>
      <point x="730" y="658"/>
      <point x="734" y="651"/>
      <point x="740" y="646" type="curve" smooth="yes"/>
      <point x="795" y="596" type="line" smooth="yes"/>
      <point x="798" y="593"/>
      <point x="802" y="592"/>
      <point x="805" y="592" type="curve" smooth="yes"/>
      <point x="812" y="592"/>
      <point x="818" y="596"/>
      <point x="823" y="601" type="curve" smooth="yes"/>
      <point x="901" y="683"/>
      <point x="1007" y="753"/>
      <point x="1131" y="753" type="curve" smooth="yes"/>
      <point x="1296" y="753"/>
      <point x="1449" y="655"/>
      <point x="1449" y="449" type="curve" smooth="yes"/>
      <point x="1449" y="281"/>
      <point x="1306" y="117"/>
      <point x="1082" y="117" type="curve" smooth="yes"/>
      <point x="1072" y="117"/>
      <point x="1063" y="110"/>
      <point x="1063" y="100" type="curve" smooth="yes"/>
      <point x="1063" y="53" type="line" smooth="yes"/>
      <point x="1063" y="45"/>
      <point x="1072" y="37"/>
      <point x="1082" y="37" type="curve" smooth="yes"/>
      <point x="1414" y="37"/>
      <point x="1566" y="223"/>
    </contour>
    <contour>
      <point x="1571" y="-275" type="curve" smooth="yes"/>
      <point x="1571" y="-29"/>
      <point x="1412" y="117"/>
      <point x="1085" y="117" type="curve"/>
      <point x="1085" y="37" type="line"/>
      <point x="1257" y="37"/>
      <point x="1454" y="-53"/>
      <point x="1454" y="-275" type="curve" smooth="yes"/>
      <point x="1454" y="-509"/>
      <point x="1249" y="-593"/>
      <point x="1084" y="-593" type="curve" smooth="yes"/>
      <point x="900" y="-593"/>
      <point x="775" y="-495"/>
      <point x="724" y="-392" type="curve" smooth="yes"/>
      <point x="720" y="-384"/>
      <point x="711" y="-377"/>
      <point x="704" y="-377" type="curve" smooth="yes"/>
      <point x="703" y="-377"/>
      <point x="701" y="-378"/>
      <point x="700" y="-378" type="curve" smooth="yes"/>
      <point x="670" y="-388" type="line" smooth="yes"/>
      <point x="662" y="-391"/>
      <point x="656" y="-399"/>
      <point x="656" y="-407" type="curve" smooth="yes"/>
      <point x="656" y="-409"/>
      <point x="657" y="-411"/>
      <point x="657" y="-412" type="curve" smooth="yes"/>
      <point x="704" y="-536"/>
      <point x="870" y="-691"/>
      <point x="1084" y="-691" type="curve" smooth="yes"/>
      <point x="1324" y="-691"/>
      <point x="1571" y="-558"/>
    </contour>
    <contour>
      <point x="529" y="1038" type="curve" smooth="yes"/>
      <point x="693" y="1038"/>
      <point x="884" y="1224"/>
      <point x="884" y="1406" type="curve" smooth="yes"/>
      <point x="884" y="1416"/>
      <point x="877" y="1425"/>
      <point x="867" y="1425" type="curve" smooth="yes"/>
      <point x="820" y="1425" type="line" smooth="yes"/>
      <point x="812" y="1425"/>
      <point x="805" y="1416"/>
      <point x="805" y="1406" type="curve" smooth="yes"/>
      <point x="805" y="1246"/>
      <point x="629" y="1136"/>
      <point x="529" y="1136" type="curve" smooth="yes"/>
      <point x="519" y="1136"/>
      <point x="510" y="1129"/>
      <point x="510" y="1120" type="curve" smooth="yes"/>
      <point x="510" y="1055" type="line" smooth="yes"/>
      <point x="510" y="1044"/>
      <point x="519" y="1038"/>
    </contour>
    <contour>
      <point x="1160" y="1038" type="curve" smooth="yes"/>
      <point x="1169" y="1038"/>
      <point x="1179" y="1044"/>
      <point x="1179" y="1055" type="curve" smooth="yes"/>
      <point x="1179" y="1120" type="line" smooth="yes"/>
      <point x="1179" y="1129"/>
      <point x="1169" y="1136"/>
      <point x="1160" y="1136" type="curve" smooth="yes"/>
      <point x="1060" y="1136"/>
      <point x="884" y="1246"/>
      <point x="884" y="1406" type="curve" smooth="yes"/>
      <point x="884" y="1416"/>
      <point x="877" y="1425"/>
      <point x="868" y="1425" type="curve" smooth="yes"/>
      <point x="821" y="1425" type="line" smooth="yes"/>
      <point x="811" y="1425"/>
      <point x="805" y="1416"/>
      <point x="805" y="1406" type="curve" smooth="yes"/>
      <point x="805" y="1224"/>
      <point x="995" y="1038"/>
    </contour>
  </outline>
</glyph>
<glyph name="uni1986" format="2">
  <advance width="1169"/>
  <unicode hex="1986"/>
  <anchor x="584" y="-100" name="bottom"/>
  <outline>
    <contour>
      <point x="1066" y="402" type="curve" smooth="yes"/>
      <point x="1066" y="688"/>
      <point x="878" y="870"/>
      <point x="584" y="870" type="curve" smooth="yes"/>
      <point x="315" y="870"/>
      <point x="103" y="678"/>
      <point x="103" y="393" type="curve" smooth="yes"/>
      <point x="103" y="209"/>
      <point x="176" y="86"/>
      <point x="313" y="-14" type="curve" smooth="yes"/>
      <point x="317" y="-17"/>
      <point x="322" y="-19"/>
      <point x="325" y="-19" type="curve" smooth="yes"/>
      <point x="332" y="-19"/>
      <point x="337" y="-15"/>
      <point x="343" y="-8" type="curve"/>
      <point x="394" y="56" type="line"/>
      <point x="396" y="60"/>
      <point x="397" y="63"/>
      <point x="397" y="67" type="curve" smooth="yes"/>
      <point x="397" y="74"/>
      <point x="394" y="80"/>
      <point x="388" y="84" type="curve" smooth="yes"/>
      <point x="288" y="160"/>
      <point x="220" y="252"/>
      <point x="220" y="393" type="curve" smooth="yes"/>
      <point x="220" y="582"/>
      <point x="352" y="753"/>
      <point x="584" y="753" type="curve" smooth="yes"/>
      <point x="820" y="753"/>
      <point x="949" y="586"/>
      <point x="949" y="402" type="curve" smooth="yes"/>
      <point x="949" y="231"/>
      <point x="888" y="141"/>
      <point x="762" y="87" type="curve" smooth="yes"/>
      <point x="756" y="84"/>
      <point x="752" y="77"/>
      <point x="752" y="70" type="curve" smooth="yes"/>
      <point x="752" y="68"/>
      <point x="753" y="65"/>
      <point x="754" y="63" type="curve" smooth="yes"/>
      <point x="798" y="-10" type="line" smooth="yes"/>
      <point x="801" y="-15"/>
      <point x="806" y="-19"/>
      <point x="812" y="-19" type="curve" smooth="yes"/>
      <point x="815" y="-19"/>
      <point x="819" y="-18"/>
      <point x="823" y="-16" type="curve" smooth="yes"/>
      <point x="990" y="69"/>
      <point x="1066" y="195"/>
    </contour>
    <contour>
      <point x="612" y="1451" type="curve" smooth="yes"/>
      <point x="796" y="1451"/>
      <point x="902" y="1362"/>
      <point x="944" y="1269" type="curve" smooth="yes"/>
      <point x="947" y="1261"/>
      <point x="956" y="1254"/>
      <point x="964" y="1254" type="curve" smooth="yes"/>
      <point x="965" y="1254"/>
      <point x="969" y="1254"/>
      <point x="970" y="1254" type="curve" smooth="yes"/>
      <point x="1000" y="1264" type="line" smooth="yes"/>
      <point x="1008" y="1267"/>
      <point x="1012" y="1277"/>
      <point x="1012" y="1285" type="curve" smooth="yes"/>
      <point x="1012" y="1286"/>
      <point x="1012" y="1288"/>
      <point x="1008" y="1298" type="curve" smooth="yes"/>
      <point x="967" y="1401"/>
      <point x="825" y="1540"/>
      <point x="612" y="1540" type="curve" smooth="yes"/>
      <point x="251" y="1540"/>
      <point x="126" y="1274"/>
      <point x="126" y="982" type="curve" smooth="yes"/>
      <point x="126" y="804"/>
      <point x="142" y="659"/>
      <point x="156" y="565" type="curve"/>
      <point x="265" y="670" type="line"/>
      <point x="252" y="744"/>
      <point x="243" y="848"/>
      <point x="243" y="982" type="curve" smooth="yes"/>
      <point x="243" y="1223"/>
      <point x="335" y="1451"/>
    </contour>
  </outline>
</glyph>
<glyph name="uni1989" format="2">
  <advance width="1670"/>
  <unicode hex="1989"/>
  <anchor x="832" y="-100" name="bottom"/>
  <outline>
    <contour>
      <point x="1567" y="421" type="curve" smooth="yes"/>
      <point x="1567" y="666"/>
      <point x="1427" y="870"/>
      <point x="1151" y="870" type="curve" smooth="yes"/>
      <point x="1098" y="870"/>
      <point x="1030" y="859"/>
      <point x="983" y="832" type="curve" smooth="yes"/>
      <point x="977" y="828"/>
      <point x="973" y="822"/>
      <point x="973" y="816" type="curve" smooth="yes"/>
      <point x="973" y="814"/>
      <point x="974" y="811"/>
      <point x="975" y="809" type="curve" smooth="yes"/>
      <point x="1018" y="735" type="line" smooth="yes"/>
      <point x="1021" y="730"/>
      <point x="1027" y="727"/>
      <point x="1034" y="727" type="curve" smooth="yes"/>
      <point x="1037" y="727"/>
      <point x="1040" y="728"/>
      <point x="1043" y="729" type="curve" smooth="yes"/>
      <point x="1068" y="743"/>
      <point x="1114" y="753"/>
      <point x="1151" y="753" type="curve" smooth="yes"/>
      <point x="1347" y="753"/>
      <point x="1450" y="598"/>
      <point x="1450" y="421" type="curve" smooth="yes"/>
      <point x="1450" y="234"/>
      <point x="1353" y="97"/>
      <point x="1170" y="97" type="curve" smooth="yes"/>
      <point x="1027" y="97"/>
      <point x="870" y="207"/>
      <point x="870" y="401" type="curve"/>
      <point x="768" y="268" type="line"/>
      <point x="834" y="115"/>
      <point x="957" y="-20"/>
      <point x="1170" y="-20" type="curve" smooth="yes"/>
      <point x="1429" y="-20"/>
      <point x="1567" y="176"/>
    </contour>
    <contour>
      <point x="468" y="-20" type="curve" smooth="yes"/>
      <point x="707" y="-20"/>
      <point x="870" y="137"/>
      <point x="870" y="421" type="curve" smooth="yes"/>
      <point x="870" y="690"/>
      <point x="706" y="870"/>
      <point x="458" y="870" type="curve" smooth="yes"/>
      <point x="321" y="870"/>
      <point x="203" y="815"/>
      <point x="103" y="687" type="curve" smooth="yes"/>
      <point x="100" y="683"/>
      <point x="98" y="679"/>
      <point x="98" y="675" type="curve" smooth="yes"/>
      <point x="98" y="668"/>
      <point x="102" y="661"/>
      <point x="108" y="657" type="curve" smooth="yes"/>
      <point x="173" y="607" type="line" smooth="yes"/>
      <point x="177" y="604"/>
      <point x="181" y="603"/>
      <point x="185" y="603" type="curve" smooth="yes"/>
      <point x="191" y="603"/>
      <point x="197" y="606"/>
      <point x="201" y="612" type="curve" smooth="yes"/>
      <point x="277" y="712"/>
      <point x="354" y="753"/>
      <point x="458" y="753" type="curve" smooth="yes"/>
      <point x="619" y="753"/>
      <point x="753" y="654"/>
      <point x="753" y="421" type="curve" smooth="yes"/>
      <point x="753" y="185"/>
      <point x="614" y="97"/>
      <point x="468" y="97" type="curve" smooth="yes"/>
      <point x="364" y="97"/>
      <point x="286" y="137"/>
      <point x="210" y="237" type="curve" smooth="yes"/>
      <point x="206" y="243"/>
      <point x="200" y="247"/>
      <point x="193" y="247" type="curve" smooth="yes"/>
      <point x="190" y="247"/>
      <point x="186" y="246"/>
      <point x="182" y="243" type="curve" smooth="yes"/>
      <point x="118" y="193" type="line" smooth="yes"/>
      <point x="112" y="188"/>
      <point x="108" y="181"/>
      <point x="108" y="174" type="curve" smooth="yes"/>
      <point x="108" y="170"/>
      <point x="109" y="166"/>
      <point x="112" y="163" type="curve" smooth="yes"/>
      <point x="212" y="35"/>
      <point x="330" y="-20"/>
    </contour>
  </outline>
</glyph>
<glyph name="uni198A" format="2">
  <advance width="1341"/>
  <unicode hex="198A"/>
  <outline>
    <contour>
      <point x="520" y="-20" type="curve" smooth="yes"/>
      <point x="845" y="-20"/>
      <point x="951" y="236"/>
      <point x="951" y="532" type="curve" smooth="yes"/>
      <point x="951" y="594"/>
      <point x="946" y="657"/>
      <point x="938" y="720" type="curve" smooth="yes"/>
      <point x="918" y="874"/>
      <point x="908" y="1006"/>
      <point x="908" y="1113" type="curve" smooth="yes"/>
      <point x="908" y="1333"/>
      <point x="952" y="1451"/>
      <point x="1048" y="1451" type="curve" smooth="yes"/>
      <point x="1178" y="1451"/>
      <point x="1193" y="1324"/>
      <point x="1193" y="1147" type="curve" smooth="yes"/>
      <point x="1193" y="1138"/>
      <point x="1200" y="1129"/>
      <point x="1210" y="1129" type="curve" smooth="yes"/>
      <point x="1247" y="1128" type="line" smooth="yes"/>
      <point x="1256" y="1128"/>
      <point x="1260" y="1138"/>
      <point x="1262" y="1147" type="curve" smooth="yes"/>
      <point x="1273" y="1200"/>
      <point x="1278" y="1249"/>
      <point x="1278" y="1293" type="curve" smooth="yes"/>
      <point x="1278" y="1445"/>
      <point x="1212" y="1540"/>
      <point x="1048" y="1540" type="curve" smooth="yes"/>
      <point x="861" y="1540"/>
      <point x="792" y="1382"/>
      <point x="792" y="1100" type="curve" smooth="yes"/>
      <point x="792" y="991"/>
      <point x="802" y="864"/>
      <point x="820" y="720" type="curve" smooth="yes"/>
      <point x="828" y="655"/>
      <point x="834" y="588"/>
      <point x="834" y="522" type="curve" smooth="yes"/>
      <point x="834" y="299"/>
      <point x="770" y="97"/>
      <point x="520" y="97" type="curve" smooth="yes"/>
      <point x="338" y="97"/>
      <point x="230" y="134"/>
      <point x="230" y="257" type="curve" smooth="yes"/>
      <point x="230" y="345"/>
      <point x="295" y="404"/>
      <point x="421" y="404" type="curve" smooth="yes"/>
      <point x="441" y="404"/>
      <point x="464" y="421"/>
      <point x="464" y="441" type="curve" smooth="yes"/>
      <point x="464" y="462"/>
      <point x="442" y="473"/>
      <point x="421" y="473" type="curve" smooth="yes"/>
      <point x="410" y="473"/>
      <point x="379" y="473"/>
      <point x="361" y="473" type="curve" smooth="yes"/>
      <point x="243" y="473"/>
      <point x="112" y="376"/>
      <point x="112" y="248" type="curve" smooth="yes"/>
      <point x="112" y="63"/>
      <point x="272" y="-20"/>
    </contour>
    <contour>
      <point x="393" y="870" type="curve" smooth="yes"/>
      <point x="209" y="870"/>
      <point x="112" y="762"/>
      <point x="112" y="636" type="curve" smooth="yes"/>
      <point x="112" y="467"/>
      <point x="268" y="402"/>
      <point x="466" y="402" type="curve" smooth="yes"/>
      <point x="475" y="402"/>
      <point x="484" y="410"/>
      <point x="484" y="418" type="curve" smooth="yes"/>
      <point x="484" y="465" type="line" smooth="yes"/>
      <point x="484" y="475"/>
      <point x="475" y="482"/>
      <point x="466" y="482" type="curve" smooth="yes"/>
      <point x="264" y="482"/>
      <point x="230" y="554"/>
      <point x="230" y="636" type="curve" smooth="yes"/>
      <point x="230" y="696"/>
      <point x="281" y="753"/>
      <point x="393" y="753" type="curve" smooth="yes"/>
      <point x="443" y="753"/>
      <point x="467" y="742"/>
      <point x="491" y="730" type="curve" smooth="yes"/>
      <point x="500" y="725"/>
      <point x="505" y="724"/>
      <point x="509" y="724" type="curve" smooth="yes"/>
      <point x="516" y="724"/>
      <point x="522" y="727"/>
      <point x="525" y="732" type="curve" smooth="yes"/>
      <point x="568" y="801" type="line" smooth="yes"/>
      <point x="569" y="803"/>
      <point x="570" y="806"/>
      <point x="570" y="808" type="curve" smooth="yes"/>
      <point x="570" y="814"/>
      <point x="566" y="820"/>
      <point x="561" y="824" type="curve" smooth="yes"/>
      <point x="532" y="845"/>
      <point x="478" y="870"/>
    </contour>
  </outline>
</glyph>
<glyph name="uni1990" format="2">
  <advance width="1622"/>
  <unicode hex="1990"/>
  <outline>
    <contour>
      <point x="1519" y="393" type="curve" smooth="yes"/>
      <point x="1519" y="628"/>
      <point x="1412" y="870"/>
      <point x="1134" y="870" type="curve" smooth="yes"/>
      <point x="853" y="870"/>
      <point x="783" y="644"/>
      <point x="751" y="425" type="curve" smooth="yes"/>
      <point x="721" y="223"/>
      <point x="649" y="97"/>
      <point x="475" y="97" type="curve" smooth="yes"/>
      <point x="338" y="97"/>
      <point x="220" y="206"/>
      <point x="220" y="421" type="curve" smooth="yes"/>
      <point x="220" y="598"/>
      <point x="285" y="753"/>
      <point x="435" y="753" type="curve" smooth="yes"/>
      <point x="445" y="753"/>
      <point x="459" y="752"/>
      <point x="468" y="750" type="curve" smooth="yes"/>
      <point x="471" y="749"/>
      <point x="475" y="749"/>
      <point x="478" y="749" type="curve" smooth="yes"/>
      <point x="485" y="749"/>
      <point x="490" y="750"/>
      <point x="493" y="755" type="curve" smooth="yes"/>
      <point x="536" y="829" type="line" smooth="yes"/>
      <point x="538" y="832"/>
      <point x="538" y="835"/>
      <point x="538" y="838" type="curve" smooth="yes"/>
      <point x="538" y="844"/>
      <point x="535" y="850"/>
      <point x="528" y="853" type="curve" smooth="yes"/>
      <point x="499" y="865"/>
      <point x="465" y="870"/>
      <point x="435" y="870" type="curve" smooth="yes"/>
      <point x="206" y="870"/>
      <point x="103" y="675"/>
      <point x="103" y="421" type="curve" smooth="yes"/>
      <point x="103" y="148"/>
      <point x="244" y="-20"/>
      <point x="475" y="-20" type="curve" smooth="yes"/>
      <point x="744" y="-20"/>
      <point x="833" y="166"/>
      <point x="872" y="425" type="curve" smooth="yes"/>
      <point x="898" y="597"/>
      <point x="957" y="753"/>
      <point x="1134" y="753" type="curve" smooth="yes"/>
      <point x="1327" y="753"/>
      <point x="1403" y="570"/>
      <point x="1403" y="393" type="curve" smooth="yes"/>
      <point x="1403" y="215"/>
      <point x="1318" y="97"/>
      <point x="1169" y="97" type="curve" smooth="yes"/>
      <point x="1158" y="97"/>
      <point x="1144" y="98"/>
      <point x="1136" y="100" type="curve" smooth="yes"/>
      <point x="1133" y="101"/>
      <point x="1129" y="101"/>
      <point x="1126" y="101" type="curve" smooth="yes"/>
      <point x="1120" y="101"/>
      <point x="1114" y="99"/>
      <point x="1111" y="94" type="curve" smooth="yes"/>
      <point x="1068" y="21" type="line" smooth="yes"/>
      <point x="1066" y="18"/>
      <point x="1066" y="15"/>
      <point x="1066" y="12" type="curve" smooth="yes"/>
      <point x="1066" y="6"/>
      <point x="1069" y="0"/>
      <point x="1075" y="-3" type="curve" smooth="yes"/>
      <point x="1104" y="-15"/>
      <point x="1139" y="-20"/>
      <point x="1169" y="-20" type="curve" smooth="yes"/>
      <point x="1398" y="-20"/>
      <point x="1519" y="148"/>
    </contour>
    <contour>
      <point x="1501" y="-360" type="curve" smooth="yes"/>
      <point x="1501" y="-207"/>
      <point x="1397" y="-113"/>
      <point x="1258" y="-113" type="curve" smooth="yes"/>
      <point x="1248" y="-113"/>
      <point x="1239" y="-106"/>
      <point x="1239" y="-97" type="curve" smooth="yes"/>
      <point x="1239" y="46" type="line"/>
      <point x="1136" y="46" type="line"/>
      <point x="1136" y="-184" type="line" smooth="yes"/>
      <point x="1136" y="-194"/>
      <point x="1144" y="-201"/>
      <point x="1154" y="-201" type="curve" smooth="yes"/>
      <point x="1316" y="-201"/>
      <point x="1384" y="-263"/>
      <point x="1384" y="-360" type="curve" smooth="yes"/>
      <point x="1384" y="-478"/>
      <point x="1237" y="-587"/>
      <point x="874" y="-587" type="curve" smooth="yes"/>
      <point x="582" y="-587"/>
      <point x="398" y="-514"/>
      <point x="326" y="-390" type="curve" smooth="yes"/>
      <point x="317" y="-375"/>
      <point x="311" y="-367"/>
      <point x="302" y="-367" type="curve" smooth="yes"/>
      <point x="299" y="-367"/>
      <point x="296" y="-367"/>
      <point x="292" y="-369" type="curve" smooth="yes"/>
      <point x="267" y="-379" type="line" smooth="yes"/>
      <point x="260" y="-382"/>
      <point x="254" y="-385"/>
      <point x="254" y="-395" type="curve" smooth="yes"/>
      <point x="254" y="-400"/>
      <point x="256" y="-407"/>
      <point x="261" y="-417" type="curve" smooth="yes"/>
      <point x="327" y="-546"/>
      <point x="453" y="-690"/>
      <point x="874" y="-690" type="curve" smooth="yes"/>
      <point x="1346" y="-690"/>
      <point x="1501" y="-511"/>
    </contour>
  </outline>
</glyph>
<glyph name="uni199A" format="2">
  <advance width="1075"/>
  <unicode hex="199A"/>
  <outline>
    <contour>
      <point x="374" y="870" type="curve" smooth="yes"/>
      <point x="218" y="870"/>
      <point x="112" y="762"/>
      <point x="112" y="636" type="curve" smooth="yes"/>
      <point x="112" y="476"/>
      <point x="258" y="402"/>
      <point x="446" y="402" type="curve" smooth="yes"/>
      <point x="455" y="402"/>
      <point x="465" y="410"/>
      <point x="465" y="418" type="curve" smooth="yes"/>
      <point x="465" y="465" type="line" smooth="yes"/>
      <point x="465" y="475"/>
      <point x="455" y="482"/>
      <point x="446" y="482" type="curve" smooth="yes"/>
      <point x="263" y="482"/>
      <point x="229" y="554"/>
      <point x="229" y="626" type="curve" smooth="yes"/>
      <point x="229" y="696"/>
      <point x="281" y="753"/>
      <point x="374" y="753" type="curve" smooth="yes"/>
      <point x="439" y="753"/>
      <point x="484" y="738"/>
      <point x="500" y="729" type="curve" smooth="yes"/>
      <point x="503" y="728"/>
      <point x="506" y="727"/>
      <point x="509" y="727" type="curve" smooth="yes"/>
      <point x="516" y="727"/>
      <point x="521" y="730"/>
      <point x="525" y="736" type="curve" smooth="yes"/>
      <point x="568" y="805" type="line" smooth="yes"/>
      <point x="569" y="807"/>
      <point x="570" y="809"/>
      <point x="570" y="811" type="curve" smooth="yes"/>
      <point x="570" y="817"/>
      <point x="566" y="823"/>
      <point x="561" y="827" type="curve" smooth="yes"/>
      <point x="532" y="849"/>
      <point x="459" y="870"/>
    </contour>
    <contour>
      <point x="498" y="-20" type="curve" smooth="yes"/>
      <point x="808" y="-20"/>
      <point x="972" y="181"/>
      <point x="972" y="598" type="curve" smooth="yes"/>
      <point x="972" y="792"/>
      <point x="949" y="1023"/>
      <point x="902" y="1154" type="curve" smooth="yes"/>
      <point x="899" y="1164"/>
      <point x="890" y="1171"/>
      <point x="882" y="1167" type="curve" smooth="yes"/>
      <point x="783" y="1122"/>
      <point x="698" y="1098"/>
      <point x="542" y="1098" type="curve" smooth="yes"/>
      <point x="363" y="1098"/>
      <point x="248" y="1149"/>
      <point x="248" y="1270" type="curve" smooth="yes"/>
      <point x="248" y="1381"/>
      <point x="363" y="1451"/>
      <point x="542" y="1451" type="curve" smooth="yes"/>
      <point x="693" y="1451"/>
      <point x="837" y="1414"/>
      <point x="911" y="1368" type="curve" smooth="yes"/>
      <point x="914" y="1366"/>
      <point x="918" y="1365"/>
      <point x="922" y="1365" type="curve" smooth="yes"/>
      <point x="927" y="1365"/>
      <point x="933" y="1366"/>
      <point x="936" y="1371" type="curve" smooth="yes"/>
      <point x="954" y="1404" type="line" smooth="yes"/>
      <point x="956" y="1407"/>
      <point x="956" y="1410"/>
      <point x="956" y="1413" type="curve" smooth="yes"/>
      <point x="956" y="1419"/>
      <point x="953" y="1424"/>
      <point x="948" y="1427" type="curve" smooth="yes"/>
      <point x="850" y="1492"/>
      <point x="708" y="1540"/>
      <point x="542" y="1540" type="curve" smooth="yes"/>
      <point x="332" y="1540"/>
      <point x="140" y="1455"/>
      <point x="140" y="1270" type="curve" smooth="yes"/>
      <point x="140" y="1084"/>
      <point x="295" y="999"/>
      <point x="542" y="999" type="curve" smooth="yes"/>
      <point x="696" y="999"/>
      <point x="759" y="1015"/>
      <point x="805" y="1028" type="curve" smooth="yes"/>
      <point x="815" y="1030"/>
      <point x="820" y="1020"/>
      <point x="823" y="1011" type="curve" smooth="yes"/>
      <point x="851" y="912"/>
      <point x="856" y="734"/>
      <point x="856" y="598" type="curve" smooth="yes"/>
      <point x="856" y="240"/>
      <point x="727" y="97"/>
      <point x="498" y="97" type="curve" smooth="yes"/>
      <point x="325" y="97"/>
      <point x="229" y="148"/>
      <point x="229" y="262" type="curve" smooth="yes"/>
      <point x="229" y="331"/>
      <point x="272" y="402"/>
      <point x="446" y="402" type="curve" smooth="yes"/>
      <point x="455" y="402"/>
      <point x="465" y="410"/>
      <point x="465" y="418" type="curve" smooth="yes"/>
      <point x="465" y="434"/>
      <point x="465" y="449"/>
      <point x="465" y="465" type="curve" smooth="yes"/>
      <point x="465" y="475"/>
      <point x="455" y="482"/>
      <point x="446" y="482" type="curve" smooth="yes"/>
      <point x="274" y="482"/>
      <point x="112" y="398"/>
      <point x="112" y="252" type="curve" smooth="yes"/>
      <point x="112" y="77"/>
      <point x="251" y="-20"/>
    </contour>
  </outline>
</glyph>
<glyph name="uni19A7" format="2">
  <advance width="1108"/>
  <unicode hex="19A7"/>
  <outline>
    <component base="dailuemodifierw" xOffset="1137"/>
    <contour>
      <point x="490" y="430" type="curve" smooth="yes"/>
      <point x="257" y="430"/>
      <point x="116" y="336"/>
      <point x="116" y="201" type="curve" smooth="yes"/>
      <point x="116" y="49"/>
      <point x="304" y="-20"/>
      <point x="485" y="-20" type="curve" smooth="yes"/>
      <point x="809" y="-20"/>
      <point x="1005" y="174"/>
      <point x="1005" y="439" type="curve" smooth="yes"/>
      <point x="1005" y="690"/>
      <point x="841" y="870"/>
      <point x="527" y="870" type="curve" smooth="yes"/>
      <point x="343" y="870"/>
      <point x="197" y="797"/>
      <point x="116" y="659" type="curve" smooth="yes"/>
      <point x="109" y="649"/>
      <point x="112" y="637"/>
      <point x="122" y="629" type="curve" smooth="yes"/>
      <point x="186" y="579" type="line" smooth="yes"/>
      <point x="195" y="571"/>
      <point x="209" y="574"/>
      <point x="214" y="584" type="curve" smooth="yes"/>
      <point x="271" y="684"/>
      <point x="386" y="753"/>
      <point x="527" y="753" type="curve" smooth="yes"/>
      <point x="744" y="753"/>
      <point x="888" y="654"/>
      <point x="888" y="439" type="curve" smooth="yes"/>
      <point x="888" y="218"/>
      <point x="707" y="83"/>
      <point x="485" y="83" type="curve" smooth="yes"/>
      <point x="357" y="83"/>
      <point x="219" y="114"/>
      <point x="219" y="201" type="curve" smooth="yes"/>
      <point x="219" y="265"/>
      <point x="310" y="332"/>
      <point x="490" y="332" type="curve" smooth="yes"/>
      <point x="729" y="332"/>
      <point x="893" y="205"/>
      <point x="935" y="4" type="curve" smooth="yes"/>
      <point x="937" y="-7"/>
      <point x="944" y="-10"/>
      <point x="953" y="-10" type="curve" smooth="yes"/>
      <point x="993" y="-10" type="line" smooth="yes"/>
      <point x="1001" y="-10"/>
      <point x="1006" y="-6"/>
      <point x="1005" y="4" type="curve" smooth="yes"/>
      <point x="977" y="258"/>
      <point x="777" y="430"/>
    </contour>
  </outline>
</glyph>
<glyph name="uni19AB" format="2">
  <advance width="1169"/>
  <unicode hex="19AB"/>
  <outline>
    <component base="dailuemodifierw" xOffset="1160"/>
    <contour>
      <point x="1066" y="449" type="curve" smooth="yes"/>
      <point x="1066" y="716"/>
      <point x="887" y="870"/>
      <point x="594" y="870" type="curve" smooth="yes"/>
      <point x="324" y="870"/>
      <point x="103" y="678"/>
      <point x="103" y="393" type="curve" smooth="yes"/>
      <point x="103" y="209"/>
      <point x="176" y="80"/>
      <point x="313" y="-20" type="curve" smooth="yes"/>
      <point x="316" y="-22"/>
      <point x="320" y="-24"/>
      <point x="324" y="-24" type="curve" smooth="yes"/>
      <point x="331" y="-24"/>
      <point x="338" y="-20"/>
      <point x="343" y="-14" type="curve" smooth="yes"/>
      <point x="394" y="50" type="line" smooth="yes"/>
      <point x="397" y="53"/>
      <point x="398" y="57"/>
      <point x="398" y="60" type="curve" smooth="yes"/>
      <point x="398" y="67"/>
      <point x="394" y="74"/>
      <point x="388" y="78" type="curve" smooth="yes"/>
      <point x="288" y="154"/>
      <point x="220" y="252"/>
      <point x="220" y="393" type="curve" smooth="yes"/>
      <point x="220" y="582"/>
      <point x="361" y="753"/>
      <point x="594" y="753" type="curve" smooth="yes"/>
      <point x="829" y="753"/>
      <point x="949" y="633"/>
      <point x="949" y="449" type="curve" smooth="yes"/>
      <point x="949" y="252"/>
      <point x="834" y="144"/>
      <point x="694" y="144" type="curve" smooth="yes"/>
      <point x="684" y="144"/>
      <point x="675" y="137"/>
      <point x="675" y="127" type="curve" smooth="yes"/>
      <point x="675" y="80" type="line" smooth="yes"/>
      <point x="675" y="72"/>
      <point x="684" y="64"/>
      <point x="694" y="64" type="curve" smooth="yes"/>
      <point x="942" y="64"/>
      <point x="1066" y="269"/>
    </contour>
    <contour>
      <point x="1025" y="-59" type="curve" smooth="yes"/>
      <point x="1033" y="-66"/>
      <point x="1041" y="-66"/>
      <point x="1048" y="-61" type="curve" smooth="yes"/>
      <point x="1082" y="-40" type="line" smooth="yes"/>
      <point x="1089" y="-35"/>
      <point x="1091" y="-29"/>
      <point x="1085" y="-22" type="curve" smooth="yes"/>
      <point x="988" y="95"/>
      <point x="872" y="144"/>
      <point x="696" y="144" type="curve"/>
      <point x="696" y="64" type="line"/>
      <point x="839" y="64"/>
      <point x="938" y="27"/>
    </contour>
    <contour>
      <point x="612" y="1451" type="curve" smooth="yes"/>
      <point x="796" y="1451"/>
      <point x="902" y="1362"/>
      <point x="944" y="1269" type="curve" smooth="yes"/>
      <point x="948" y="1259"/>
      <point x="960" y="1252"/>
      <point x="968" y="1255" type="curve" smooth="yes"/>
      <point x="998" y="1265" type="line" smooth="yes"/>
      <point x="1007" y="1268"/>
      <point x="1014" y="1280"/>
      <point x="1011" y="1289" type="curve" smooth="yes"/>
      <point x="973" y="1403"/>
      <point x="825" y="1540"/>
      <point x="612" y="1540" type="curve" smooth="yes"/>
      <point x="251" y="1540"/>
      <point x="126" y="1274"/>
      <point x="126" y="982" type="curve" smooth="yes"/>
      <point x="126" y="804"/>
      <point x="142" y="659"/>
      <point x="156" y="565" type="curve"/>
      <point x="265" y="670" type="line"/>
      <point x="252" y="744"/>
      <point x="243" y="848"/>
      <point x="243" y="982" type="curve" smooth="yes"/>
      <point x="243" y="1223"/>
      <point x="335" y="1451"/>
    </contour>
  </outline>
</glyph>
<glyph name="uni19B1" format="2">
  <advance width="1075"/>
  <unicode hex="19B1"/>
  <outline>
    <contour>
      <point x="496" y="-20" type="curve" smooth="yes"/>
      <point x="791" y="-20"/>
      <point x="972" y="165"/>
      <point x="972" y="421" type="curve" smooth="yes"/>
      <point x="972" y="671"/>
      <point x="799" y="870"/>
      <point x="505" y="870" type="curve" smooth="yes"/>
      <point x="330" y="870"/>
      <point x="212" y="797"/>
      <point x="103" y="659" type="curve" smooth="yes"/>
      <point x="100" y="655"/>
      <point x="98" y="651"/>
      <point x="98" y="647" type="curve" smooth="yes"/>
      <point x="98" y="640"/>
      <point x="102" y="633"/>
      <point x="108" y="629" type="curve" smooth="yes"/>
      <point x="173" y="588" type="line" smooth="yes"/>
      <point x="177" y="586"/>
      <point x="181" y="585"/>
      <point x="184" y="585" type="curve" smooth="yes"/>
      <point x="191" y="585"/>
      <point x="197" y="588"/>
      <point x="201" y="594" type="curve" smooth="yes"/>
      <point x="277" y="694"/>
      <point x="364" y="753"/>
      <point x="505" y="753" type="curve" smooth="yes"/>
      <point x="694" y="753"/>
      <point x="856" y="635"/>
      <point x="856" y="421" type="curve" smooth="yes"/>
      <point x="856" y="213"/>
      <point x="708" y="97"/>
      <point x="496" y="97" type="curve" smooth="yes"/>
      <point x="382" y="97"/>
      <point x="277" y="133"/>
      <point x="201" y="228" type="curve" smooth="yes"/>
      <point x="196" y="234"/>
      <point x="190" y="237"/>
      <point x="184" y="237" type="curve" smooth="yes"/>
      <point x="180" y="237"/>
      <point x="177" y="236"/>
      <point x="173" y="234" type="curve" smooth="yes"/>
      <point x="108" y="193" type="line" smooth="yes"/>
      <point x="102" y="189"/>
      <point x="98" y="182"/>
      <point x="98" y="175" type="curve" smooth="yes"/>
      <point x="98" y="171"/>
      <point x="100" y="167"/>
      <point x="103" y="163" type="curve" smooth="yes"/>
      <point x="203" y="30"/>
      <point x="358" y="-20"/>
    </contour>
  </outline>
</glyph>
<glyph name="uni19B2" format="2">
  <advance width="1071"/>
  <unicode hex="19B2"/>
  <outline>
    <contour>
      <point x="538" y="1540" type="curve" smooth="yes"/>
      <point x="241" y="1540"/>
      <point x="122" y="1235"/>
      <point x="122" y="756" type="curve" smooth="yes"/>
      <point x="122" y="287"/>
      <point x="232" y="-20"/>
      <point x="538" y="-20" type="curve" smooth="yes"/>
      <point x="834" y="-20"/>
      <point x="949" y="286"/>
      <point x="949" y="756" type="curve" smooth="yes"/>
      <point x="949" y="1245"/>
      <point x="825" y="1540"/>
    </contour>
    <contour>
      <point x="538" y="1437" type="curve" smooth="yes"/>
      <point x="741" y="1437"/>
      <point x="832" y="1169"/>
      <point x="832" y="756" type="curve" smooth="yes"/>
      <point x="832" y="354"/>
      <point x="750" y="97"/>
      <point x="538" y="97" type="curve" smooth="yes"/>
      <point x="326" y="97"/>
      <point x="238" y="345"/>
      <point x="238" y="756" type="curve" smooth="yes"/>
      <point x="238" y="1169"/>
      <point x="317" y="1437"/>
    </contour>
    <contour>
      <point x="538" y="762" type="curve" smooth="yes"/>
      <point x="666" y="762"/>
      <point x="810" y="655"/>
      <point x="810" y="397" type="curve"/>
      <point x="847" y="594" type="line"/>
      <point x="824" y="782"/>
      <point x="672" y="870"/>
      <point x="538" y="870" type="curve" smooth="yes"/>
      <point x="399" y="870"/>
      <point x="253" y="782"/>
      <point x="225" y="594" type="curve"/>
      <point x="258" y="397" type="line"/>
      <point x="258" y="656"/>
      <point x="410" y="762"/>
    </contour>
  </outline>
</glyph>
<glyph name="uni19B4" format="2">
  <advance width="1327"/>
  <unicode hex="19B4"/>
  <outline>
    <contour>
      <point x="427" y="-20" type="curve" smooth="yes"/>
      <point x="572" y="-20"/>
      <point x="731" y="82"/>
      <point x="862" y="230" type="curve"/>
      <point x="815" y="309" type="line"/>
      <point x="710" y="187"/>
      <point x="552" y="97"/>
      <point x="437" y="97" type="curve" smooth="yes"/>
      <point x="291" y="97"/>
      <point x="260" y="191"/>
      <point x="260" y="383" type="curve"/>
      <point x="260" y="573" type="line" smooth="yes"/>
      <point x="260" y="682"/>
      <point x="239" y="794"/>
      <point x="206" y="855" type="curve" smooth="yes"/>
      <point x="200" y="864"/>
      <point x="191" y="872"/>
      <point x="184" y="868" type="curve" smooth="yes"/>
      <point x="97" y="822" type="line" smooth="yes"/>
      <point x="89" y="817"/>
      <point x="82" y="806"/>
      <point x="87" y="798" type="curve" smooth="yes"/>
      <point x="119" y="742"/>
      <point x="143" y="649"/>
      <point x="143" y="541" type="curve" smooth="yes"/>
      <point x="143" y="346" type="line" smooth="yes"/>
      <point x="143" y="123"/>
      <point x="196" y="-20"/>
    </contour>
    <contour>
      <point x="1041" y="-690" type="curve" smooth="yes"/>
      <point x="1253" y="-690"/>
      <point x="1307" y="-508"/>
      <point x="1260" y="-274" type="curve" smooth="yes"/>
      <point x="1259" y="-265"/>
      <point x="1253" y="-256"/>
      <point x="1244" y="-256" type="curve" smooth="yes"/>
      <point x="1207" y="-256" type="line" smooth="yes"/>
      <point x="1197" y="-256"/>
      <point x="1190" y="-265"/>
      <point x="1190" y="-274" type="curve" smooth="yes"/>
      <point x="1190" y="-451"/>
      <point x="1171" y="-592"/>
      <point x="1041" y="-592" type="curve" smooth="yes"/>
      <point x="929" y="-592"/>
      <point x="910" y="-473"/>
      <point x="910" y="-233" type="curve" smooth="yes"/>
      <point x="910" y="832" type="line" smooth="yes"/>
      <point x="910" y="842"/>
      <point x="902" y="851"/>
      <point x="894" y="851" type="curve" smooth="yes"/>
      <point x="810" y="851" type="line" smooth="yes"/>
      <point x="799" y="851"/>
      <point x="793" y="842"/>
      <point x="793" y="832" type="curve" smooth="yes"/>
      <point x="793" y="-233" type="line" smooth="yes"/>
      <point x="793" y="-564"/>
      <point x="856" y="-690"/>
    </contour>
  </outline>
</glyph>
<glyph name="uni19BD" format="2">
  <advance width="1599"/>
  <unicode hex="19BD"/>
  <outline>
    <contour>
      <point x="1117" y="-690" type="curve" smooth="yes"/>
      <point x="1349" y="-690"/>
      <point x="1459" y="-525"/>
      <point x="1459" y="-284" type="curve" smooth="yes"/>
      <point x="1459" y="832" type="line" smooth="yes"/>
      <point x="1459" y="842"/>
      <point x="1451" y="851"/>
      <point x="1443" y="851" type="curve" smooth="yes"/>
      <point x="1359" y="851" type="line" smooth="yes"/>
      <point x="1348" y="851"/>
      <point x="1342" y="842"/>
      <point x="1342" y="832" type="curve" smooth="yes"/>
      <point x="1342" y="-284" type="line" smooth="yes"/>
      <point x="1342" y="-464"/>
      <point x="1266" y="-582"/>
      <point x="1117" y="-582" type="curve" smooth="yes"/>
      <point x="969" y="-582"/>
      <point x="912" y="-464"/>
      <point x="912" y="-284" type="curve" smooth="yes"/>
      <point x="912" y="334" type="line"/>
      <point x="795" y="159" type="line"/>
      <point x="795" y="-284" type="line" smooth="yes"/>
      <point x="795" y="-525"/>
      <point x="876" y="-690"/>
    </contour>
    <contour>
      <point x="519" y="-20" type="curve" smooth="yes"/>
      <point x="787" y="-20"/>
      <point x="930" y="175"/>
      <point x="930" y="421" type="curve" smooth="yes"/>
      <point x="930" y="685"/>
      <point x="778" y="870"/>
      <point x="519" y="870" type="curve" smooth="yes"/>
      <point x="251" y="870"/>
      <point x="103" y="675"/>
      <point x="103" y="421" type="curve" smooth="yes"/>
      <point x="103" y="176"/>
      <point x="241" y="-20"/>
    </contour>
    <contour>
      <point x="519" y="97" type="curve" smooth="yes"/>
      <point x="331" y="97"/>
      <point x="220" y="215"/>
      <point x="220" y="421" type="curve" smooth="yes"/>
      <point x="220" y="627"/>
      <point x="331" y="753"/>
      <point x="519" y="753" type="curve" smooth="yes"/>
      <point x="708" y="753"/>
      <point x="813" y="627"/>
      <point x="813" y="421" type="curve" smooth="yes"/>
      <point x="813" y="224"/>
      <point x="707" y="97"/>
    </contour>
  </outline>
</glyph>
<glyph name="uni19BE" format="2">
  <advance width="1528"/>
  <unicode hex="19BE"/>
  <outline>
    <contour>
      <point x="799" y="-20" type="curve" smooth="yes"/>
      <point x="1054" y="-20"/>
      <point x="1134" y="210"/>
      <point x="1134" y="507" type="curve" smooth="yes"/>
      <point x="1134" y="592"/>
      <point x="1127" y="683"/>
      <point x="1116" y="776" type="curve" smooth="yes"/>
      <point x="1101" y="899"/>
      <point x="1093" y="1012"/>
      <point x="1093" y="1110" type="curve" smooth="yes"/>
      <point x="1093" y="1317"/>
      <point x="1132" y="1451"/>
      <point x="1238" y="1451" type="curve" smooth="yes"/>
      <point x="1368" y="1451"/>
      <point x="1378" y="1297"/>
      <point x="1378" y="1148" type="curve" smooth="yes"/>
      <point x="1378" y="1139"/>
      <point x="1385" y="1130"/>
      <point x="1395" y="1130" type="curve" smooth="yes"/>
      <point x="1432" y="1129" type="line" smooth="yes"/>
      <point x="1441" y="1129"/>
      <point x="1446" y="1139"/>
      <point x="1448" y="1148" type="curve" smooth="yes"/>
      <point x="1459" y="1198"/>
      <point x="1465" y="1246"/>
      <point x="1465" y="1290" type="curve" smooth="yes"/>
      <point x="1465" y="1436"/>
      <point x="1401" y="1540"/>
      <point x="1238" y="1540" type="curve" smooth="yes"/>
      <point x="1045" y="1540"/>
      <point x="979" y="1366"/>
      <point x="979" y="1091" type="curve" smooth="yes"/>
      <point x="979" y="997"/>
      <point x="987" y="891"/>
      <point x="1000" y="776" type="curve" smooth="yes"/>
      <point x="1011" y="683"/>
      <point x="1018" y="586"/>
      <point x="1018" y="496" type="curve" smooth="yes"/>
      <point x="1018" y="273"/>
      <point x="971" y="88"/>
      <point x="799" y="88" type="curve" smooth="yes"/>
      <point x="620" y="88"/>
      <point x="458" y="357"/>
      <point x="458" y="538" type="curve" smooth="yes"/>
      <point x="458" y="654"/>
      <point x="482" y="753"/>
      <point x="561" y="753" type="curve"/>
      <point x="561" y="870" type="line"/>
      <point x="392" y="870"/>
      <point x="341" y="741"/>
      <point x="341" y="552" type="curve" smooth="yes"/>
      <point x="341" y="301"/>
      <point x="567" y="-20"/>
    </contour>
    <contour>
      <point x="323" y="-20" type="curve" smooth="yes"/>
      <point x="555" y="-20"/>
      <point x="781" y="301"/>
      <point x="781" y="552" type="curve" smooth="yes"/>
      <point x="781" y="741"/>
      <point x="730" y="870"/>
      <point x="561" y="870" type="curve"/>
      <point x="561" y="753" type="line"/>
      <point x="640" y="753"/>
      <point x="664" y="654"/>
      <point x="664" y="538" type="curve" smooth="yes"/>
      <point x="664" y="357"/>
      <point x="502" y="88"/>
      <point x="323" y="88" type="curve" smooth="yes"/>
      <point x="244" y="88"/>
      <point x="189" y="156"/>
      <point x="178" y="243" type="curve" smooth="yes"/>
      <point x="177" y="250"/>
      <point x="168" y="254"/>
      <point x="161" y="254" type="curve" smooth="yes"/>
      <point x="158" y="254"/>
      <point x="155" y="253"/>
      <point x="153" y="252" type="curve" smooth="yes"/>
      <point x="87" y="213" type="line" smooth="yes"/>
      <point x="78" y="208"/>
      <point x="74" y="202"/>
      <point x="74" y="194" type="curve" smooth="yes"/>
      <point x="74" y="192"/>
      <point x="75" y="190"/>
      <point x="75" y="187" type="curve" smooth="yes"/>
      <point x="97" y="70"/>
      <point x="196" y="-20"/>
    </contour>
  </outline>
</glyph>
<glyph name="uni19C1" format="2">
  <advance width="1108"/>
  <unicode hex="19C1"/>
  <outline>
    <contour>
      <point x="556" y="870" type="curve" smooth="yes"/>
      <point x="260" y="870"/>
      <point x="103" y="675"/>
      <point x="103" y="421" type="curve" smooth="yes"/>
      <point x="103" y="176"/>
      <point x="251" y="-20"/>
      <point x="556" y="-20" type="curve" smooth="yes"/>
      <point x="853" y="-20"/>
      <point x="1005" y="175"/>
      <point x="1005" y="421" type="curve" smooth="yes"/>
      <point x="1005" y="685"/>
      <point x="843" y="870"/>
    </contour>
    <contour>
      <point x="556" y="753" type="curve" smooth="yes"/>
      <point x="759" y="753"/>
      <point x="888" y="609"/>
      <point x="888" y="421" type="curve" smooth="yes"/>
      <point x="888" y="243"/>
      <point x="769" y="97"/>
      <point x="556" y="97" type="curve" smooth="yes"/>
      <point x="345" y="97"/>
      <point x="220" y="234"/>
      <point x="220" y="421" type="curve" smooth="yes"/>
      <point x="220" y="609"/>
      <point x="336" y="753"/>
    </contour>
    <contour>
      <point x="767" y="-690" type="curve" smooth="yes"/>
      <point x="887" y="-690"/>
      <point x="986" y="-608"/>
      <point x="986" y="-489" type="curve" smooth="yes"/>
      <point x="986" y="439" type="line"/>
      <point x="870" y="219" type="line"/>
      <point x="870" y="-489" type="line" smooth="yes"/>
      <point x="870" y="-550"/>
      <point x="828" y="-592"/>
      <point x="767" y="-592" type="curve" smooth="yes"/>
      <point x="705" y="-592"/>
      <point x="669" y="-550"/>
      <point x="669" y="-489" type="curve" smooth="yes"/>
      <point x="669" y="-428"/>
      <point x="705" y="-391"/>
      <point x="767" y="-391" type="curve" smooth="yes"/>
      <point x="828" y="-391"/>
      <point x="870" y="-428"/>
      <point x="870" y="-489" type="curve"/>
      <point x="986" y="-489" type="line"/>
      <point x="968" y="-419"/>
      <point x="864" y="-293"/>
      <point x="757" y="-293" type="curve" smooth="yes"/>
      <point x="655" y="-293"/>
      <point x="570" y="-366"/>
      <point x="570" y="-489" type="curve" smooth="yes"/>
      <point x="570" y="-609"/>
      <point x="655" y="-690"/>
    </contour>
  </outline>
</glyph>
<glyph name="uni19C3" format="2">
  <advance width="1113"/>
  <unicode hex="19C3"/>
  <outline>
    <contour>
      <point x="767" y="-690" type="curve" smooth="yes"/>
      <point x="887" y="-690"/>
      <point x="986" y="-608"/>
      <point x="986" y="-489" type="curve" smooth="yes"/>
      <point x="986" y="-251" type="line" smooth="yes"/>
      <point x="986" y="69"/>
      <point x="865" y="243"/>
      <point x="556" y="243" type="curve" smooth="yes"/>
      <point x="459" y="243"/>
      <point x="337" y="194"/>
      <point x="256" y="140" type="curve" smooth="yes"/>
      <point x="247" y="135"/>
      <point x="238" y="147"/>
      <point x="238" y="157" type="curve" smooth="yes"/>
      <point x="238" y="285" type="line" smooth="yes"/>
      <point x="238" y="614"/>
      <point x="354" y="753"/>
      <point x="556" y="753" type="curve" smooth="yes"/>
      <point x="753" y="753"/>
      <point x="847" y="633"/>
      <point x="860" y="482" type="curve" smooth="yes"/>
      <point x="861" y="469"/>
      <point x="866" y="463"/>
      <point x="877" y="463" type="curve" smooth="yes"/>
      <point x="964" y="463" type="line" smooth="yes"/>
      <point x="973" y="463"/>
      <point x="978" y="470"/>
      <point x="977" y="482" type="curve" smooth="yes"/>
      <point x="964" y="694"/>
      <point x="844" y="870"/>
      <point x="556" y="870" type="curve" smooth="yes"/>
      <point x="300" y="870"/>
      <point x="122" y="703"/>
      <point x="122" y="295" type="curve" smooth="yes"/>
      <point x="122" y="-19" type="line"/>
      <point x="125" y="-25"/>
      <point x="134" y="-32"/>
      <point x="142" y="-33" type="curve"/>
      <point x="241" y="42"/>
      <point x="400" y="126"/>
      <point x="547" y="126" type="curve" smooth="yes"/>
      <point x="777" y="126"/>
      <point x="870" y="-7"/>
      <point x="870" y="-251" type="curve" smooth="yes"/>
      <point x="870" y="-489" type="line" smooth="yes"/>
      <point x="870" y="-550"/>
      <point x="828" y="-592"/>
      <point x="767" y="-592" type="curve" smooth="yes"/>
      <point x="705" y="-592"/>
      <point x="669" y="-550"/>
      <point x="669" y="-489" type="curve" smooth="yes"/>
      <point x="669" y="-428"/>
      <point x="705" y="-391"/>
      <point x="767" y="-391" type="curve" smooth="yes"/>
      <point x="828" y="-391"/>
      <point x="870" y="-428"/>
      <point x="870" y="-489" type="curve"/>
      <point x="986" y="-489" type="line"/>
      <point x="968" y="-419"/>
      <point x="864" y="-293"/>
      <point x="757" y="-293" type="curve" smooth="yes"/>
      <point x="655" y="-293"/>
      <point x="570" y="-366"/>
      <point x="570" y="-489" type="curve" smooth="yes"/>
      <point x="570" y="-609"/>
      <point x="655" y="-690"/>
    </contour>
  </outline>
</glyph>
<glyph name="uni19C8" format="2">
  <advance width="1042"/>
  <unicode hex="19C8"/>
  <outline>
    <contour>
      <point x="529" y="-20" type="curve" smooth="yes"/>
      <point x="745" y="-20"/>
      <point x="929" y="58"/>
      <point x="929" y="257" type="curve" smooth="yes"/>
      <point x="929" y="420"/>
      <point x="760" y="505"/>
      <point x="565" y="505" type="curve" smooth="yes"/>
      <point x="420" y="505"/>
      <point x="268" y="449"/>
      <point x="163" y="384" type="curve"/>
      <point x="212" y="288" type="line"/>
      <point x="299" y="352"/>
      <point x="424" y="402"/>
      <point x="565" y="402" type="curve" smooth="yes"/>
      <point x="693" y="402"/>
      <point x="822" y="358"/>
      <point x="822" y="257" type="curve" smooth="yes"/>
      <point x="822" y="128"/>
      <point x="673" y="97"/>
      <point x="529" y="97" type="curve" smooth="yes"/>
      <point x="345" y="97"/>
      <point x="220" y="194"/>
      <point x="220" y="421" type="curve" smooth="yes"/>
      <point x="220" y="635"/>
      <point x="331" y="753"/>
      <point x="539" y="753" type="curve" smooth="yes"/>
      <point x="661" y="753"/>
      <point x="762" y="720"/>
      <point x="828" y="640" type="curve" smooth="yes"/>
      <point x="833" y="635"/>
      <point x="839" y="631"/>
      <point x="845" y="631" type="curve" smooth="yes"/>
      <point x="849" y="631"/>
      <point x="853" y="632"/>
      <point x="856" y="635" type="curve" smooth="yes"/>
      <point x="912" y="685" type="line" smooth="yes"/>
      <point x="917" y="690"/>
      <point x="921" y="697"/>
      <point x="921" y="703" type="curve" smooth="yes"/>
      <point x="921" y="707"/>
      <point x="920" y="711"/>
      <point x="917" y="715" type="curve" smooth="yes"/>
      <point x="817" y="843"/>
      <point x="685" y="870"/>
      <point x="539" y="870" type="curve" smooth="yes"/>
      <point x="235" y="870"/>
      <point x="103" y="671"/>
      <point x="103" y="421" type="curve" smooth="yes"/>
      <point x="103" y="146"/>
      <point x="262" y="-20"/>
    </contour>
  </outline>
</glyph>
<glyph name="uni19D4" format="2">
  <advance width="1071"/>
  <unicode hex="19D4"/>
  <outline>
    <contour>
      <point x="103" y="421" type="curve" smooth="yes"/>
      <point x="103" y="137"/>
      <point x="312" y="-20"/>
      <point x="561" y="-20" type="curve" smooth="yes"/>
      <point x="613" y="-20"/>
      <point x="662" y="-8"/>
      <point x="727" y="16" type="curve" smooth="yes"/>
      <point x="736" y="19"/>
      <point x="738" y="5"/>
      <point x="732" y="-2" type="curve" smooth="yes"/>
      <point x="598" y="-164"/>
      <point x="366" y="-391"/>
      <point x="112" y="-576" type="curve" smooth="yes"/>
      <point x="108" y="-579"/>
      <point x="104" y="-585"/>
      <point x="104" y="-592" type="curve" smooth="yes"/>
      <point x="104" y="-595"/>
      <point x="105" y="-599"/>
      <point x="108" y="-602" type="curve" smooth="yes"/>
      <point x="180" y="-685" type="line" smooth="yes"/>
      <point x="183" y="-688"/>
      <point x="187" y="-689"/>
      <point x="191" y="-689" type="curve" smooth="yes"/>
      <point x="196" y="-689"/>
      <point x="202" y="-687"/>
      <point x="205" y="-684" type="curve" smooth="yes"/>
      <point x="409" y="-499"/>
      <point x="712" y="-184"/>
      <point x="962" y="122" type="curve" smooth="yes"/>
      <point x="967" y="128"/>
      <point x="972" y="135"/>
      <point x="972" y="140" type="curve" smooth="yes"/>
      <point x="972" y="143"/>
      <point x="970" y="147"/>
      <point x="968" y="150" type="curve" smooth="yes"/>
      <point x="925" y="201" type="line" smooth="yes"/>
      <point x="921" y="205"/>
      <point x="916" y="208"/>
      <point x="910" y="208" type="curve" smooth="yes"/>
      <point x="906" y="207"/>
      <point x="902" y="206"/>
      <point x="899" y="204" type="curve" smooth="yes"/>
      <point x="781" y="126"/>
      <point x="667" y="97"/>
      <point x="561" y="97" type="curve" smooth="yes"/>
      <point x="396" y="97"/>
      <point x="220" y="194"/>
      <point x="220" y="421" type="curve" smooth="yes"/>
      <point x="220" y="635"/>
      <point x="372" y="753"/>
      <point x="570" y="753" type="curve" smooth="yes"/>
      <point x="702" y="753"/>
      <point x="794" y="703"/>
      <point x="870" y="594" type="curve" smooth="yes"/>
      <point x="874" y="588"/>
      <point x="879" y="585"/>
      <point x="885" y="584" type="curve" smooth="yes"/>
      <point x="890" y="584"/>
      <point x="894" y="585"/>
      <point x="898" y="588" type="curve" smooth="yes"/>
      <point x="962" y="629" type="line" smooth="yes"/>
      <point x="968" y="633"/>
      <point x="971" y="639"/>
      <point x="971" y="646" type="curve" smooth="yes"/>
      <point x="971" y="651"/>
      <point x="970" y="655"/>
      <point x="968" y="659" type="curve" smooth="yes"/>
      <point x="868" y="806"/>
      <point x="745" y="870"/>
      <point x="570" y="870" type="curve" smooth="yes"/>
      <point x="285" y="870"/>
      <point x="103" y="690"/>
    </contour>
  </outline>
</glyph>
<glyph name="uni19D5" format="2">
  <advance width="1173"/>
  <unicode hex="19D5"/>
  <outline>
    <contour>
      <point x="528" y="-690" type="curve" smooth="yes"/>
      <point x="955" y="-690"/>
      <point x="1071" y="-336"/>
      <point x="1071" y="151" type="curve" smooth="yes"/>
      <point x="1071" y="659"/>
      <point x="1018" y="870"/>
      <point x="790" y="870" type="curve" smooth="yes"/>
      <point x="708" y="870"/>
      <point x="623" y="805"/>
      <point x="581" y="721" type="curve"/>
      <point x="542" y="805"/>
      <point x="474" y="870"/>
      <point x="379" y="870" type="curve" smooth="yes"/>
      <point x="206" y="870"/>
      <point x="112" y="729"/>
      <point x="112" y="593" type="curve" smooth="yes"/>
      <point x="112" y="480"/>
      <point x="155" y="403"/>
      <point x="229" y="359" type="curve" smooth="yes"/>
      <point x="238" y="354"/>
      <point x="248" y="353"/>
      <point x="256" y="358" type="curve"/>
      <point x="312" y="419" type="line"/>
      <point x="320" y="423"/>
      <point x="327" y="439"/>
      <point x="319" y="444" type="curve" smooth="yes"/>
      <point x="253" y="482"/>
      <point x="229" y="520"/>
      <point x="229" y="583" type="curve" smooth="yes"/>
      <point x="229" y="667"/>
      <point x="281" y="753"/>
      <point x="379" y="753" type="curve" smooth="yes"/>
      <point x="488" y="753"/>
      <point x="535" y="658"/>
      <point x="535" y="512" type="curve" smooth="yes"/>
      <point x="535" y="503"/>
      <point x="541" y="494"/>
      <point x="552" y="494" type="curve" smooth="yes"/>
      <point x="598" y="494" type="line" smooth="yes"/>
      <point x="607" y="494"/>
      <point x="615" y="505"/>
      <point x="615" y="514" type="curve" smooth="yes"/>
      <point x="615" y="658"/>
      <point x="674" y="753"/>
      <point x="781" y="753" type="curve" smooth="yes"/>
      <point x="919" y="753"/>
      <point x="954" y="590"/>
      <point x="954" y="151" type="curve" smooth="yes"/>
      <point x="954" y="-277"/>
      <point x="869" y="-592"/>
      <point x="528" y="-592" type="curve" smooth="yes"/>
      <point x="308" y="-592"/>
      <point x="202" y="-457"/>
      <point x="160" y="-364" type="curve" smooth="yes"/>
      <point x="156" y="-354"/>
      <point x="144" y="-347"/>
      <point x="137" y="-350" type="curve" smooth="yes"/>
      <point x="107" y="-360" type="line" smooth="yes"/>
      <point x="97" y="-364"/>
      <point x="91" y="-375"/>
      <point x="94" y="-384" type="curve" smooth="yes"/>
      <point x="131" y="-498"/>
      <point x="280" y="-690"/>
    </contour>
  </outline>
</glyph>
<glyph name="uni19DE" format="2">
  <advance width="1771"/>
  <unicode hex="19DE"/>
  <anchor x="753" y="-100" name="bottom"/>
  <outline>
    <contour>
      <point x="1044" y="-20" type="curve" smooth="yes"/>
      <point x="1298" y="-20"/>
      <point x="1377" y="208"/>
      <point x="1377" y="503" type="curve" smooth="yes"/>
      <point x="1377" y="589"/>
      <point x="1370" y="682"/>
      <point x="1359" y="776" type="curve" smooth="yes"/>
      <point x="1344" y="899"/>
      <point x="1335" y="1013"/>
      <point x="1335" y="1110" type="curve" smooth="yes"/>
      <point x="1335" y="1317"/>
      <point x="1375" y="1451"/>
      <point x="1481" y="1451" type="curve" smooth="yes"/>
      <point x="1611" y="1451"/>
      <point x="1621" y="1297"/>
      <point x="1621" y="1148" type="curve" smooth="yes"/>
      <point x="1621" y="1139"/>
      <point x="1628" y="1130"/>
      <point x="1638" y="1130" type="curve" smooth="yes"/>
      <point x="1676" y="1129" type="line" smooth="yes"/>
      <point x="1684" y="1129"/>
      <point x="1690" y="1139"/>
      <point x="1691" y="1148" type="curve" smooth="yes"/>
      <point x="1702" y="1198"/>
      <point x="1708" y="1246"/>
      <point x="1708" y="1290" type="curve" smooth="yes"/>
      <point x="1708" y="1436"/>
      <point x="1644" y="1540"/>
      <point x="1481" y="1540" type="curve" smooth="yes"/>
      <point x="1288" y="1540"/>
      <point x="1222" y="1365"/>
      <point x="1222" y="1091" type="curve" smooth="yes"/>
      <point x="1222" y="997"/>
      <point x="1230" y="891"/>
      <point x="1243" y="776" type="curve" smooth="yes"/>
      <point x="1254" y="682"/>
      <point x="1262" y="584"/>
      <point x="1262" y="494" type="curve" smooth="yes"/>
      <point x="1262" y="275"/>
      <point x="1215" y="97"/>
      <point x="1044" y="97" type="curve" smooth="yes"/>
      <point x="908" y="97"/>
      <point x="870" y="224"/>
      <point x="832" y="425" type="curve" smooth="yes"/>
      <point x="786" y="670"/>
      <point x="732" y="870"/>
      <point x="469" y="870" type="curve" smooth="yes"/>
      <point x="201" y="870"/>
      <point x="103" y="628"/>
      <point x="103" y="393" type="curve" smooth="yes"/>
      <point x="103" y="148"/>
      <point x="206" y="-20"/>
      <point x="435" y="-20" type="curve" smooth="yes"/>
      <point x="465" y="-20"/>
      <point x="499" y="-15"/>
      <point x="528" y="-3" type="curve" smooth="yes"/>
      <point x="535" y="0"/>
      <point x="538" y="6"/>
      <point x="538" y="13" type="curve" smooth="yes"/>
      <point x="538" y="15"/>
      <point x="538" y="18"/>
      <point x="536" y="21" type="curve" smooth="yes"/>
      <point x="493" y="94" type="line" smooth="yes"/>
      <point x="490" y="99"/>
      <point x="484" y="101"/>
      <point x="478" y="101" type="curve" smooth="yes"/>
      <point x="475" y="101"/>
      <point x="471" y="101"/>
      <point x="468" y="100" type="curve" smooth="yes"/>
      <point x="459" y="98"/>
      <point x="445" y="97"/>
      <point x="435" y="97" type="curve" smooth="yes"/>
      <point x="285" y="97"/>
      <point x="220" y="215"/>
      <point x="220" y="393" type="curve" smooth="yes"/>
      <point x="220" y="570"/>
      <point x="286" y="753"/>
      <point x="469" y="753" type="curve" smooth="yes"/>
      <point x="627" y="753"/>
      <point x="679" y="630"/>
      <point x="715" y="425" type="curve" smooth="yes"/>
      <point x="760" y="169"/>
      <point x="794" y="-20"/>
    </contour>
  </outline>
</glyph>
<glyph name="figuredash" format="2">
  <advance width="1003"/>
  <unicode hex="2012"/>
  <outline>
    <contour>
      <point x="936" y="463" type="line"/>
      <point x="936" y="589" type="line"/>
      <point x="66" y="589" type="line"/>
      <point x="66" y="463" type="line"/>
    </contour>
  </outline>
</glyph>
<glyph name="emdash" format="2">
  <advance width="1170"/>
  <unicode hex="2014"/>
  <outline>
    <contour>
      <point x="1120" y="450" type="curve" smooth="yes"/>
      <point x="1120" y="421"/>
      <point x="1112" y="410"/>
      <point x="1095" y="410" type="curve" smooth="yes"/>
      <point x="75" y="410" type="line" smooth="yes"/>
      <point x="59" y="410"/>
      <point x="50" y="421"/>
      <point x="50" y="450" type="curve" smooth="yes"/>
      <point x="50" y="477"/>
      <point x="60" y="490"/>
      <point x="77" y="490" type="curve" smooth="yes"/>
      <point x="1093" y="490" type="line" smooth="yes"/>
      <point x="1111" y="490"/>
      <point x="1120" y="477"/>
    </contour>
  </outline>
</glyph>
<glyph name="quotesinglbase" format="2">
  <advance width="635"/>
  <unicode hex="201A"/>
  <outline>
    <contour>
      <point x="221" y="41" type="line"/>
      <point x="338" y="41" type="line"/>
      <point x="338" y="-42"/>
      <point x="274" y="-143"/>
      <point x="225" y="-192" type="curve"/>
      <point x="309" y="-225" type="line"/>
      <point x="407" y="-133"/>
      <point x="455" y="-30"/>
      <point x="455" y="71" type="curve" smooth="yes"/>
      <point x="455" y="155"/>
      <point x="401" y="209"/>
      <point x="334" y="209" type="curve" smooth="yes"/>
      <point x="286" y="209"/>
      <point x="232" y="178"/>
      <point x="221" y="125" type="curve"/>
    </contour>
  </outline>
</glyph>
<glyph name="quotedblbase" format="2">
  <advance width="953"/>
  <unicode hex="201E"/>
  <outline>
    <contour>
      <point x="179" y="41" type="line"/>
      <point x="296" y="41" type="line"/>
      <point x="296" y="-42"/>
      <point x="232" y="-143"/>
      <point x="183" y="-192" type="curve"/>
      <point x="267" y="-225" type="line"/>
      <point x="365" y="-133"/>
      <point x="413" y="-30"/>
      <point x="413" y="71" type="curve" smooth="yes"/>
      <point x="413" y="155"/>
      <point x="359" y="209"/>
      <point x="292" y="209" type="curve" smooth="yes"/>
      <point x="244" y="209"/>
      <point x="190" y="178"/>
      <point x="179" y="125" type="curve"/>
    </contour>
    <contour>
      <point x="539" y="41" type="line"/>
      <point x="656" y="41" type="line"/>
      <point x="656" y="-42"/>
      <point x="591" y="-143"/>
      <point x="543" y="-192" type="curve"/>
      <point x="627" y="-225" type="line"/>
      <point x="724" y="-133"/>
      <point x="773" y="-30"/>
      <point x="773" y="71" type="curve" smooth="yes"/>
      <point x="773" y="155"/>
      <point x="718" y="209"/>
      <point x="652" y="209" type="curve" smooth="yes"/>
      <point x="604" y="209"/>
      <point x="550" y="178"/>
      <point x="539" y="125" type="curve"/>
    </contour>
  </outline>
</glyph>
<glyph name="hyphenationpoint" format="2">
  <advance width="567"/>
  <unicode hex="2027"/>
  <outline>
    <contour>
      <point x="171" y="592" type="curve" smooth="yes"/>
      <point x="171" y="530"/>
      <point x="221" y="480"/>
      <point x="283" y="480" type="curve" smooth="yes"/>
      <point x="345" y="480"/>
      <point x="395" y="530"/>
      <point x="395" y="592" type="curve" smooth="yes"/>
      <point x="395" y="654"/>
      <point x="345" y="704"/>
      <point x="283" y="704" type="curve" smooth="yes"/>
      <point x="221" y="704"/>
      <point x="171" y="654"/>
    </contour>
  </outline>
</glyph>
<glyph name="guilsinglleft" format="2">
  <advance width="712"/>
  <unicode hex="2039"/>
  <outline>
    <contour>
      <point x="622" y="-258" type="line"/>
      <point x="200" y="425" type="line"/>
      <point x="622" y="1109" type="line"/>
      <point x="568" y="1136" type="line"/>
      <point x="130" y="425" type="line"/>
      <point x="568" y="-285" type="line"/>
    </contour>
  </outline>
</glyph>
<glyph name="fraction" format="2">
  <advance width="1003"/>
  <unicode hex="2044"/>
  <outline>
    <contour>
      <point x="869" y="1338" type="line"/>
      <point x="8" y="-205" type="line"/>
      <point x="135" y="-205" type="line"/>
      <point x="995" y="1338" type="line"/>
    </contour>
  </outline>
</glyph>
<glyph name="increment" format="2">
  <advance width="1166"/>
  <unicode hex="2206"/>
  <outline>
    <contour>
      <point x="970" y="0" type="line"/>
      <point x="1091" y="0" type="line"/>
      <point x="1091" y="121" type="line"/>
      <point x="665" y="1221" type="line"/>
      <point x="485" y="1221" type="line"/>
      <point x="59" y="121" type="line"/>
      <point x="59" y="0" type="line"/>
      <point x="180" y="0" type="line"/>
      <point x="573" y="1058" type="line"/>
    </contour>
    <contour>
      <point x="148" y="0" type="line"/>
      <point x="1004" y="0" type="line"/>
      <point x="1004" y="138" type="line"/>
      <point x="148" y="138" type="line"/>
    </contour>
  </outline>
</glyph>
<glyph name="minus" format="2">
  <advance width="1003"/>
  <unicode hex="2212"/>
  <outline>
    <contour>
      <point x="129" y="543" type="line"/>
      <point x="873" y="543" type="line"/>
      <point x="873" y="668" type="line"/>
      <point x="129" y="668" type="line"/>
    </contour>
  </outline>
</glyph>
<glyph name="greaterequal" format="2">
  <advance width="1003"/>
  <unicode hex="2265"/>
  <outline>
    <contour>
      <point x="100" y="205" type="line"/>
      <point x="920" y="539" type="line"/>
      <point x="920" y="681" type="line"/>
      <point x="100" y="1016" type="line"/>
      <point x="100" y="865" type="line"/>
      <point x="761" y="610" type="line"/>
      <point x="100" y="355" type="line"/>
    </contour>
    <contour>
      <point x="100" y="0" type="line"/>
      <point x="920" y="0" type="line"/>
      <point x="920" y="125" type="line"/>
      <point x="100" y="125" type="line"/>
    </contour>
  </outline>
</glyph>
<glyph name="period-han" format="2">
  <advance width="1030"/>
  <unicode hex="3002"/>
  <outline>
    <contour>
      <point x="705" y="-30" type="curve" smooth="yes"/>
      <point x="705" y="82"/>
      <point x="618" y="160"/>
      <point x="515" y="160" type="curve" smooth="yes"/>
      <point x="410" y="160"/>
      <point x="326" y="79"/>
      <point x="326" y="-30" type="curve" smooth="yes"/>
      <point x="326" y="-140"/>
      <point x="413" y="-220"/>
      <point x="515" y="-220" type="curve" smooth="yes"/>
      <point x="620" y="-220"/>
      <point x="705" y="-139"/>
    </contour>
    <contour>
      <point x="640" y="-30" type="curve" smooth="yes"/>
      <point x="640" y="-100"/>
      <point x="585" y="-156"/>
      <point x="515" y="-156" type="curve" smooth="yes"/>
      <point x="447" y="-156"/>
      <point x="390" y="-100"/>
      <point x="390" y="-30" type="curve" smooth="yes"/>
      <point x="390" y="43"/>
      <point x="452" y="98"/>
      <point x="516" y="98" type="curve" smooth="yes"/>
      <point x="582" y="98"/>
      <point x="640" y="41"/>
    </contour>
  </outline>
</glyph>
<glyph name="sidebearingleft" format="2">
  <advance width="284"/>
  <unicode hex="F130"/>
  <outline>
    <contour>
      <point x="37" y="0" type="line"/>
      <point x="37" y="-32" type="line"/>
      <point x="251" y="-32" type="line"/>
      <point x="251" y="-246" type="line"/>
      <point x="284" y="-246" type="line"/>
      <point x="284" y="0" type="line"/>
    </contour>
  </outline>
</glyph>
<glyph name="sidebearingright" format="2">
  <advance width="284"/>
  <unicode hex="F131"/>
  <outline>
    <contour>
      <point x="0" y="0" type="line"/>
      <point x="0" y="-246" type="line"/>
      <point x="32" y="-246" type="line"/>
      <point x="32" y="-32" type="line"/>
      <point x="246" y="-32" type="line"/>
      <point x="246" y="0" type="line"/>
    </contour>
  </outline>
</glyph>
<glyph name="exclam.full" format="2">
  <advance width="1030"/>
  <unicode hex="FF01"/>
  <outline>
    <contour>
      <point x="599" y="1151" type="curve" smooth="yes"/>
      <point x="599" y="1186"/>
      <point x="577" y="1200"/>
      <point x="515" y="1200" type="curve" smooth="yes"/>
      <point x="452" y="1200"/>
      <point x="428" y="1189"/>
      <point x="428" y="1151" type="curve" smooth="yes"/>
      <point x="428" y="1109"/>
      <point x="431" y="915"/>
      <point x="433" y="891" type="curve" smooth="yes"/>
      <point x="489" y="274" type="line" smooth="yes"/>
      <point x="490" y="263"/>
      <point x="501" y="258"/>
      <point x="512" y="258" type="curve" smooth="yes"/>
      <point x="523" y="258"/>
      <point x="534" y="263"/>
      <point x="535" y="274" type="curve" smooth="yes"/>
      <point x="595" y="891" type="line" smooth="yes"/>
      <point x="597" y="915"/>
      <point x="599" y="1109"/>
    </contour>
    <contour>
      <point x="629" y="-30" type="curve" smooth="yes"/>
      <point x="629" y="-110"/>
      <point x="580" y="-160"/>
      <point x="514" y="-160" type="curve" smooth="yes"/>
      <point x="450" y="-160"/>
      <point x="399" y="-110"/>
      <point x="399" y="-30" type="curve" smooth="yes"/>
      <point x="399" y="50"/>
      <point x="450" y="100"/>
      <point x="514" y="100" type="curve" smooth="yes"/>
      <point x="580" y="100"/>
      <point x="629" y="50"/>
    </contour>
  </outline>
</glyph>
<glyph name="parenleft.full" format="2">
  <advance width="1030"/>
  <unicode hex="FF08"/>
  <outline>
    <contour>
      <point x="920" y="-285" type="line"/>
      <point x="770" y="-147"/>
      <point x="618" y="85"/>
      <point x="618" y="425" type="curve" smooth="yes"/>
      <point x="618" y="765"/>
      <point x="770" y="996"/>
      <point x="920" y="1135" type="curve"/>
      <point x="896" y="1162" type="line"/>
      <point x="680" y="1006"/>
      <point x="518" y="795"/>
      <point x="518" y="425" type="curve" smooth="yes"/>
      <point x="518" y="54"/>
      <point x="680" y="-157"/>
      <point x="896" y="-312" type="curve"/>
    </contour>
  </outline>
</glyph>
<glyph name="parenright.full" format="2">
  <advance width="1030"/>
  <unicode hex="FF09"/>
  <outline>
    <contour>
      <point x="134" y="-312" type="line"/>
      <point x="350" y="-156"/>
      <point x="512" y="55"/>
      <point x="512" y="425" type="curve" smooth="yes"/>
      <point x="512" y="796"/>
      <point x="350" y="1007"/>
      <point x="134" y="1162" type="curve"/>
      <point x="110" y="1135" type="line"/>
      <point x="260" y="997"/>
      <point x="412" y="765"/>
      <point x="412" y="425" type="curve" smooth="yes"/>
      <point x="412" y="85"/>
      <point x="260" y="-146"/>
      <point x="110" y="-285" type="curve"/>
    </contour>
  </outline>
</glyph>
<glyph name="comma.full" format="2">
  <advance width="1030"/>
  <unicode hex="FF0C"/>
  <outline>
    <contour>
      <point x="647" y="-87" type="curve" smooth="yes"/>
      <point x="647" y="59"/>
      <point x="589" y="101"/>
      <point x="518" y="101" type="curve" smooth="yes"/>
      <point x="451" y="101"/>
      <point x="399" y="49"/>
      <point x="399" y="-36" type="curve" smooth="yes"/>
      <point x="399" y="-120"/>
      <point x="455" y="-159"/>
      <point x="495" y="-159" type="curve" smooth="yes"/>
      <point x="533" y="-159"/>
      <point x="540" y="-126"/>
      <point x="551" y="-126" type="curve" smooth="yes"/>
      <point x="565" y="-126"/>
      <point x="573" y="-143"/>
      <point x="573" y="-180" type="curve" smooth="yes"/>
      <point x="573" y="-306"/>
      <point x="504" y="-451"/>
      <point x="405" y="-560" type="curve" smooth="yes"/>
      <point x="402" y="-563"/>
      <point x="401" y="-565"/>
      <point x="401" y="-567" type="curve" smooth="yes"/>
      <point x="401" y="-568"/>
      <point x="401" y="-570"/>
      <point x="403" y="-572" type="curve" smooth="yes"/>
      <point x="404" y="-573"/>
      <point x="410" y="-579"/>
      <point x="411" y="-580" type="curve" smooth="yes"/>
      <point x="413" y="-582"/>
      <point x="415" y="-583"/>
      <point x="417" y="-583" type="curve" smooth="yes"/>
      <point x="419" y="-583"/>
      <point x="421" y="-582"/>
      <point x="423" y="-580" type="curve" smooth="yes"/>
      <point x="569" y="-446"/>
      <point x="647" y="-261"/>
    </contour>
  </outline>
</glyph>
<glyph name="question.full" format="2">
  <advance width="1030"/>
  <unicode hex="FF1F"/>
  <outline>
    <contour>
      <point x="630" y="-30" type="curve" smooth="yes"/>
      <point x="630" y="50"/>
      <point x="580" y="100"/>
      <point x="514" y="100" type="curve" smooth="yes"/>
      <point x="450" y="100"/>
      <point x="400" y="50"/>
      <point x="400" y="-30" type="curve" smooth="yes"/>
      <point x="400" y="-110"/>
      <point x="450" y="-160"/>
      <point x="514" y="-160" type="curve" smooth="yes"/>
      <point x="580" y="-160"/>
      <point x="630" y="-110"/>
    </contour>
    <contour>
      <point x="852" y="894" type="curve" smooth="yes"/>
      <point x="852" y="1088"/>
      <point x="703" y="1200"/>
      <point x="515" y="1200" type="curve" smooth="yes"/>
      <point x="330" y="1200"/>
      <point x="227" y="1092"/>
      <point x="178" y="1011" type="curve" smooth="yes"/>
      <point x="175" y="1007"/>
      <point x="174" y="1002"/>
      <point x="174" y="998" type="curve" smooth="yes"/>
      <point x="174" y="985"/>
      <point x="188" y="973"/>
      <point x="215" y="958" type="curve" smooth="yes"/>
      <point x="233" y="948"/>
      <point x="247" y="942"/>
      <point x="257" y="942" type="curve" smooth="yes"/>
      <point x="266" y="942"/>
      <point x="273" y="947"/>
      <point x="279" y="958" type="curve" smooth="yes"/>
      <point x="316" y="1027"/>
      <point x="398" y="1100"/>
      <point x="515" y="1100" type="curve" smooth="yes"/>
      <point x="633" y="1100"/>
      <point x="745" y="1023"/>
      <point x="745" y="877" type="curve" smooth="yes"/>
      <point x="745" y="642"/>
      <point x="455" y="592"/>
      <point x="455" y="570" type="curve" smooth="yes"/>
      <point x="455" y="545"/>
      <point x="455" y="306"/>
      <point x="455" y="278" type="curve" smooth="yes"/>
      <point x="455" y="263"/>
      <point x="466" y="260"/>
      <point x="515" y="260" type="curve" smooth="yes"/>
      <point x="559" y="260"/>
      <point x="575" y="268"/>
      <point x="575" y="279" type="curve" smooth="yes"/>
      <point x="575" y="306"/>
      <point x="575" y="452"/>
      <point x="575" y="524" type="curve" smooth="yes"/>
      <point x="575" y="541"/>
      <point x="852" y="614"/>
    </contour>
  </outline>
</glyph>
<glyph name="dailuemodifierfinal" format="2">
  <outline>
    <contour>
      <point x="-340" y="-690" type="curve" smooth="yes"/>
      <point x="-220" y="-690"/>
      <point x="-122" y="-608"/>
      <point x="-122" y="-489" type="curve" smooth="yes"/>
      <point x="-122" y="439" type="line"/>
      <point x="-237" y="219" type="line"/>
      <point x="-237" y="-489" type="line" smooth="yes"/>
      <point x="-237" y="-550"/>
      <point x="-279" y="-592"/>
      <point x="-340" y="-592" type="curve" smooth="yes"/>
      <point x="-402" y="-592"/>
      <point x="-439" y="-550"/>
      <point x="-439" y="-489" type="curve" smooth="yes"/>
      <point x="-439" y="-428"/>
      <point x="-402" y="-391"/>
      <point x="-340" y="-391" type="curve" smooth="yes"/>
      <point x="-279" y="-391"/>
      <point x="-237" y="-428"/>
      <point x="-237" y="-489" type="curve"/>
      <point x="-122" y="-489" type="line"/>
      <point x="-140" y="-419"/>
      <point x="-243" y="-293"/>
      <point x="-350" y="-293" type="curve" smooth="yes"/>
      <point x="-453" y="-293"/>
      <point x="-537" y="-366"/>
      <point x="-537" y="-489" type="curve" smooth="yes"/>
      <point x="-537" y="-609"/>
      <point x="-452" y="-690"/>
    </contour>
  </outline>
</glyph>
<glyph name="dailuemodifierw" format="2">
  <anchor x="-582" y="-100" name="_bottom"/>
  <outline>
    <contour>
      <point x="-944" y="-480" type="curve" smooth="yes"/>
      <point x="-944" y="-353"/>
      <point x="-711" y="-204"/>
      <point x="-434" y="-204" type="curve" smooth="yes"/>
      <point x="-297" y="-204"/>
      <point x="-219" y="-248"/>
      <point x="-219" y="-321" type="curve" smooth="yes"/>
      <point x="-219" y="-437"/>
      <point x="-466" y="-592"/>
      <point x="-742" y="-592" type="curve" smooth="yes"/>
      <point x="-842" y="-592"/>
      <point x="-944" y="-562"/>
    </contour>
    <contour>
      <point x="-1051" y="-489" type="curve" smooth="yes"/>
      <point x="-1051" y="-626"/>
      <point x="-914" y="-690"/>
      <point x="-761" y="-690" type="curve" smooth="yes"/>
      <point x="-430" y="-690"/>
      <point x="-112" y="-510"/>
      <point x="-112" y="-311" type="curve" smooth="yes"/>
      <point x="-112" y="-182"/>
      <point x="-224" y="-106"/>
      <point x="-415" y="-106" type="curve" smooth="yes"/>
      <point x="-746" y="-106"/>
      <point x="-1051" y="-288"/>
    </contour>
  </outline>
</glyph>
